<svg width="1920" height="947" viewBox="0 0 1920 947" fill="none" xmlns="http://www.w3.org/2000/svg">
<rect y="290" width="1920" height="657" fill="#90D0F1"/>
<path d="M1 72.6326C1813.5 61.1847 869 207.868 1924 290H1V72.6326Z" fill="#6BBEE9"/>
<path d="M1 2.3239C302 -25.6737 869 206.931 1924 290H1V2.3239Z" fill="#90D0F1"/>
<g opacity="0.5" clip-path="url(#clip0_161_5)">
<path d="M528.924 213.509C522.549 219.025 504.917 231.935 507.174 214.684C507.951 208.663 506.266 199.886 502.595 194.931C499.06 190.1 491.677 196.131 488.589 198.079C486.192 199.566 484.178 201.577 482.486 203.844C482.532 195.541 480.058 188.191 470.709 186.589C457.437 184.328 448.37 204.241 441.713 216.578C439.852 204.935 440.453 193.054 438.549 181.353C438.287 179.712 436.761 178.238 435.012 178.535C427.207 179.959 419.373 183.236 412.297 187.612C412.108 187.17 411.961 186.786 411.771 186.344C410.305 182.814 408.622 179.353 407.098 175.866C406.452 174.372 405.806 172.879 405.219 171.342C404.925 170.574 404.677 170.175 404.456 169.934C404.639 169.756 404.821 169.578 404.953 169.392C407.196 166.9 403.644 163.512 401.049 165.278C400.533 165.611 400.068 165.952 399.552 166.285C398.919 166.703 398.593 167.478 398.476 168.234C388.89 179.499 376.05 187.111 367.049 198.931C366.082 200.174 367.841 201.479 368.877 200.452C378.621 191.173 389.855 183.932 399.59 174.703C401.325 180.494 403.929 186.007 406.157 191.616C403.007 193.967 400.093 196.458 397.466 199.097C391.4 205.28 389.207 220.115 399.156 223.513C409.887 227.187 417.582 214.804 417.44 206.059C417.358 201.918 416.06 197.639 414.521 193.582C420.064 190.105 426.242 187.19 432.478 185.574C434.244 199.164 433.514 212.883 437.122 226.241C437.752 228.506 441.202 228.885 442.514 227.076C448.787 218.55 452.898 208.657 459.314 200.206C466.383 190.874 476.239 192.864 475.921 205.253C475.741 211.419 474.211 217.634 473.217 223.725C472.686 227.152 478.089 228.918 479.232 225.533C480.935 220.532 482.816 215.714 485.251 210.981C486.579 208.4 497.03 197.218 498.073 200.476C499.84 206.065 501.196 210.301 500.326 216.257C499.866 219.23 499.463 222.833 501.004 225.548C509.599 241.021 524.503 222.734 530.333 215.069C531.102 214.104 529.828 212.668 528.873 213.501L528.924 213.509ZM399.125 210.708C399.561 204.892 404.314 201.189 408.535 197.92C409.474 200.852 410.196 203.854 410.542 206.953C411.449 215.093 398.599 218.111 399.118 210.759L399.125 210.708Z" fill="white"/>
<path d="M439.684 137.349C440.41 136.997 440.526 136.911 440.1 137C438.56 137.278 437.225 138.568 437.53 140.267C437.811 142.117 437.212 143.985 437.025 145.866C436.908 146.622 437.601 147.142 438.256 147.244C438.537 149.094 438.869 150.951 439.092 152.844C439.192 153.53 440.099 153.671 440.402 153.047C442.267 149 444.814 145.214 445.155 140.673C445.379 137.559 442.357 135.75 439.735 137.357L439.684 137.349Z" fill="white"/>
<path d="M560.438 188.916C553.758 189.07 543.824 186.913 537.777 182.312C547.955 177.23 556.792 166.469 556.668 154.94C556.544 142.74 542.363 146.016 539.222 154.975C538.962 155.657 539.539 156.263 540.241 156.062C543.064 155.157 546.323 152.1 549.386 152.316C550.812 152.434 549.846 157.342 549.663 158.191C547.692 167.589 539.366 174.713 530.923 178.258C529.155 179.016 528.16 181.443 529.562 183.053C533.233 187.338 537.665 190.037 543.025 191.744C549.319 193.75 554.748 192.01 560.736 189.995C561.387 189.786 561.066 188.859 560.446 188.866L560.438 188.916Z" fill="white"/>
<path d="M613.894 245.912C601.577 238.483 591.48 228.043 580.161 219.169C579.975 219.037 579.84 218.913 579.654 218.781C588.962 210.312 596.681 201.442 599.159 197.439C599.99 196.071 598.646 194.418 597.207 195.382C588.878 200.854 581.618 208.091 574.032 214.762C569.608 212.013 564.857 210.039 559.352 210.27C548.969 210.676 529.859 216.131 535.63 230.185C541.729 245.116 559.304 235.914 574.532 223.201C575.047 223.538 575.512 223.868 576.02 224.257C588.432 233.404 597.874 243.742 613.385 247.537C614.427 247.801 614.654 246.34 613.852 245.854L613.894 245.912ZM549.21 230.791C545.995 231.893 535.399 229.014 543.279 221.77C545.378 219.875 548.36 218.943 550.966 218.108C557.764 215.857 563.183 216.851 568.496 219.531C562.664 224.202 556.407 228.292 549.21 230.791Z" fill="white"/>
<path d="M670.979 222.129C669.398 221.007 667.189 220.614 664.998 220.429C666.2 216.332 667.938 211.439 666.86 208.073C666.72 207.638 666.24 207.409 665.821 207.447C660.975 208.091 659.564 215.201 658.452 219.055C658.39 219.458 658.335 219.811 658.222 220.206C656.931 220.213 655.605 220.111 654.299 220.218C652.104 220.395 650.301 221.716 648.242 222.016C647.714 222.09 647.69 222.912 648.252 222.947C649.981 223.111 651.992 224.455 653.616 224.964C654.794 225.353 656.038 225.649 657.298 225.844C656.793 230.772 657.176 235.631 657.764 240.832C657.83 241.41 658.678 241.593 658.923 241.011C660.998 236.274 662.456 231.855 663.515 227.013C665.876 227.43 668.302 227.754 670.264 227.077C672.277 226.408 672.803 223.341 671.037 222.087L670.979 222.129Z" fill="white"/>
<path d="M819.663 254.588C821.281 253.136 822.841 251.725 824.083 250.369C827.661 246.588 830.423 240.409 831.463 235.357C831.596 234.5 830.402 234.212 830.083 234.937C827.217 240.79 820.669 244.422 815.858 248.838C811.006 243.184 804.272 238.684 799.004 234.049C797.962 233.114 796.303 233.166 795.197 233.976C790.899 237.078 785.423 239.792 780.86 243.266C780.951 241.68 780.883 240.121 780.396 238.601C777.129 228.702 764.171 223.083 754.897 227.996C748.322 231.469 746.237 238.939 746.463 246.148C746.455 246.199 746.347 246.234 746.288 246.276C737.149 259.984 726.176 257.873 719.274 243.798C717.308 239.829 715.941 234.663 716.092 230.351C720.232 227.276 724.975 224.965 730.183 223.655C732.649 223.056 733.823 219.47 731.01 218.312C718.392 213.159 712.246 218.865 710.896 227.585C704.572 233.11 700.13 240.473 698.322 249.484C698.046 250.938 700.224 251.533 700.787 250.227C703.169 244.505 706.597 239.358 710.78 235C711.126 238.098 711.875 241.259 713.001 244.324C719.772 262.249 735.805 267.672 747.804 254.82C747.935 255.305 748.059 255.84 748.24 256.333C748.484 257.093 749.453 256.83 749.656 256.191L749.858 255.551C754.563 260.821 761 262.901 768.827 259.674C772.139 258.277 775.351 255.523 777.677 252.167C784.174 248.527 790.574 244.512 796.831 240.422C801.611 244.878 806.961 248.648 811.302 253.604C808.512 256.63 805.907 259.788 803.853 263.393C799.702 270.544 805.236 280.793 813.99 280.239C823.163 279.646 822.934 267.791 822.002 261.144C821.648 258.766 820.836 256.68 819.814 254.612L819.663 254.588ZM751.986 247.468C752.34 246.181 752.686 244.944 752.99 243.649C755.392 233.131 765.487 228.913 773.115 238.3C780.395 247.272 760.376 263.269 751.986 247.468ZM809.125 267.667C810.047 264.713 812.17 261.996 814.638 259.385C815.187 261.173 815.468 263.023 815.676 265.016C815.76 266.474 815.743 267.917 815.567 269.386C815.222 273.617 807.387 273.23 809.125 267.667Z" fill="white"/>
<path d="M857.164 225.658C853.731 223.165 850.756 220.382 846.846 218.642C844.479 217.604 841.948 216.954 839.343 216.448C844.136 211.151 847.59 203.841 844.111 197.315C839.757 189.106 831.62 196.672 830.862 202.903C830.73 203.76 831.76 204.436 832.517 203.882C834.553 202.391 838.353 197.508 838.857 201.921C839.561 207.708 834.322 212.884 830.14 215.901C827.762 217.597 828.778 221.367 831.6 221.804C835.833 222.459 839.988 223.619 844.069 224.921C848.15 226.224 852.449 226.115 856.585 227.065C857.383 227.24 857.873 226.077 857.222 225.615L857.164 225.658Z" fill="white"/>
<path d="M897.886 284.915C892.445 283.402 881.072 269.203 869.507 257.916C879.668 253.605 889.598 248.123 898.764 242.574C899.73 242.001 899.002 240.701 898.064 240.763C887.825 241.242 877.568 248.171 868.334 252.161C867.225 252.66 866.065 253.151 864.964 253.6C853.444 243.353 842.509 237.996 837.92 252.976C833.969 265.835 847.085 265.439 855.565 262.984C858.315 262.223 861.045 261.252 863.732 260.222C868.116 265.236 872.069 270.7 874.912 273.669C881.217 280.27 888.114 287.377 897.943 286.214C898.781 286.137 898.685 285.09 897.995 284.88L897.886 284.915ZM850.468 258.582C848.327 259.077 845.776 259.559 843.664 258.871C840.567 257.876 844.991 248.96 848.104 249.184C851.787 249.393 855.692 252.165 859.465 255.794C856.509 256.885 853.52 257.867 850.46 258.633L850.468 258.582Z" fill="white"/>
<path d="M982.476 249.441C975.586 245.949 967.057 246.384 959.452 245.516C950.327 244.465 941.33 243.589 932.234 245.019C931.547 245.119 931.217 246.255 932.007 246.481C940.65 249.315 949.515 250.378 958.515 251.565C966.307 252.564 974.748 254.697 982.392 252.318C983.745 251.909 983.572 250.024 982.468 249.492L982.476 249.441Z" fill="white"/>
<path d="M983.868 264.779C976.26 259.266 968.404 257.018 959.213 255.389C953.686 254.43 942.02 251.128 937.054 255.21C936.88 255.338 936.841 255.59 936.968 255.765C939.895 260.192 948.447 260.277 953.009 261.138C963.091 263.008 973.274 264.223 983.387 265.892C983.991 265.985 984.434 265.125 983.868 264.779Z" fill="white"/>
<path d="M1041.65 232.485C1042.62 229.589 1038.74 226.615 1036.75 229.506C1027.88 242.481 1014.84 251.664 1006 264.488C1005.4 265.325 1006.34 266.295 1007.24 265.765C1016.34 260.36 1024.78 252.84 1032.08 244.68C1027.2 264.158 1025.88 284.701 1026.94 304.529C1026.98 305.258 1028.18 305.496 1028.4 304.755C1036.56 281.399 1033.61 256.117 1041.64 232.535L1041.65 232.485Z" fill="white"/>
</g>
<defs>
<clipPath id="clip0_161_5">
<rect width="672" height="99" fill="white" transform="translate(379.045 120.427) rotate(8.79865)"/>
</clipPath>
</defs>
</svg>
