<svg width="1920" height="997" viewBox="0 0 1920 997" fill="none" xmlns="http://www.w3.org/2000/svg">
<path d="M1920 919.347C1380 1151.86 1053.81 795.323 1 720H1920V919.347Z" fill="#F9E396"/>
<path d="M1920 967.787C1677.22 975.418 1153.73 776.185 0.999878 720H1920V967.787Z" fill="#FBD341"/>
<path d="M0 -0.000244141H1920V720H0V-0.000244141Z" fill="#FBD341"/>
<g opacity="0.5" clip-path="url(#clip0_142_3)">
<path d="M1624.55 431.875C1625.6 429.656 1622.87 426.932 1620.98 428.998C1615.21 435.3 1608.61 440.903 1602.19 446.511C1597.97 450.181 1590.37 454.651 1588.41 460.108C1588.35 460.345 1588.54 460.569 1588.75 460.585C1593.91 460.374 1599.37 454.41 1603.14 451.294C1607.53 447.628 1611.76 443.789 1615.95 439.938C1613.13 447.539 1611.09 455.569 1608.78 463.055C1604.83 475.917 1600.74 488.824 1597.39 501.812C1597.11 502.799 1597.48 504.053 1598.49 504.549C1597.93 504.265 1598.41 504.527 1598.39 504.606C1598.14 505.514 1599.52 505.902 1599.77 504.994C1599.81 504.875 1600.34 504.94 1599.76 504.904C1600.84 504.994 1601.81 504.116 1602.12 503.14C1609.48 479.651 1614.1 454.242 1624.6 431.847L1624.55 431.875Z" fill="white"/>
<path d="M1666.05 453.233C1658.19 442.722 1644.54 445.875 1636.78 454.092C1636.83 453.934 1636.87 453.776 1636.93 453.578C1637.05 452.975 1636.27 452.585 1635.95 453.133C1628.63 465.56 1621.28 487.946 1627.61 501.945C1635.16 518.716 1652.81 512.383 1661.43 500.619C1670.41 488.319 1675.93 466.399 1666.1 453.205L1666.05 453.233ZM1653.87 501.479C1649.39 506.525 1643.3 508.949 1637.05 505.746C1631.03 502.65 1630.14 494.605 1630.02 488.652C1629.91 483.296 1630.79 478.178 1632.01 473.069C1632.34 473.247 1632.76 473.279 1632.96 472.867C1636.55 465.825 1639.53 458.269 1646.49 453.92C1655.01 448.601 1663.02 456.132 1664.95 464.126C1667.94 476.509 1662.03 492.269 1653.87 501.479Z" fill="white"/>
<path d="M1722.58 466.204C1712.17 453.103 1686.43 462.021 1684.47 477.486C1678.54 488.471 1676.25 503.16 1680.47 514.185C1687.03 531.276 1707.72 526.86 1717.15 515.537C1727.95 502.552 1733.83 480.393 1722.56 466.243L1722.58 466.204ZM1710.19 513.966C1699.06 526.176 1684.69 517.628 1683.05 503.324C1682.3 496.597 1683.03 489.603 1684.89 482.97C1685.41 483.711 1686.56 483.993 1687.19 483.275C1691.68 478.189 1694.06 472.297 1700.07 468.618C1708.55 463.417 1719.03 468.362 1721.48 477.823C1724.6 489.772 1718.08 505.276 1710.19 513.966Z" fill="white"/>
<path d="M1764.07 517.121C1767.7 501.614 1769.51 485.767 1775.51 470.924C1776.04 469.626 1774.96 467.874 1773.63 467.587C1770.46 466.91 1769.9 467.859 1767.3 470.153C1760.1 476.395 1752.63 482.222 1744.82 487.611C1744.46 487.849 1744.66 488.502 1745.12 488.376C1750.32 486.812 1754.82 484.582 1759.5 481.721C1760.78 480.932 1764.71 477.561 1767.88 475.214C1764.07 485.433 1762.16 496.352 1759.93 507.014C1758.38 514.372 1756.63 521.635 1754.21 528.75C1752.37 534.11 1748.32 538.681 1748.06 544.444C1748.04 545.289 1748.88 545.91 1749.67 545.703C1759.49 543.008 1762.09 525.551 1764.04 517.24L1764.07 517.121Z" fill="white"/>
<path d="M1577.03 573.146C1580.15 560.35 1582.94 547.675 1588.11 535.495C1588.71 534.089 1587.51 532.174 1586.09 531.905C1582.78 531.274 1582.2 532.262 1579.56 534.714C1573.66 540.128 1567.7 545.868 1563.09 552.453C1562.44 553.419 1563.67 554.489 1564.58 553.977C1566.97 552.732 1574.36 545.819 1579.44 541.367C1576.24 550.011 1574.07 558.983 1571.87 568.034C1570.48 573.865 1568.94 579.651 1567.25 585.394C1565.45 591.362 1562.14 596.481 1561.75 602.718C1561.62 604.386 1563.68 604.922 1564.75 603.987C1572.77 597.251 1574.67 582.918 1577.05 573.196L1577.03 573.146Z" fill="white"/>
<path d="M1621.07 547.387C1612.89 554.377 1604.6 561.166 1596.81 568.605C1596.41 568.962 1596.79 569.748 1597.35 569.565C1604.56 567.074 1610.21 562.101 1616.08 557.403C1612.23 566.288 1609.3 575.646 1606.51 584.83C1604.88 590.205 1596.62 608.715 1601.47 613.27C1602 613.803 1602.63 613.811 1603.27 613.52C1606.44 612.238 1606.21 608.64 1606.89 605.634C1608.16 600.029 1609.67 594.491 1611.24 588.924C1614.9 575.855 1619.28 562.857 1625.15 550.577C1626.46 547.878 1623.39 545.314 1621.05 547.297L1621.07 547.387Z" fill="white"/>
<path d="M1677.23 557.701C1666.58 568.381 1656.65 579.948 1645.77 590.354C1645.31 590.779 1645.74 591.667 1646.4 591.466C1655.68 588.109 1663 580.368 1670.11 572.78C1667.75 578.762 1665.73 584.883 1663.94 591.11C1662.02 597.811 1660.34 604.539 1658.66 611.306C1657.36 616.393 1655.33 620.424 1656.93 625.474C1657.2 626.358 1658.26 626.656 1658.95 626.039C1665.34 620.381 1665.76 607.509 1667.81 599.478C1671.18 586.242 1675.35 573.357 1681.54 561.166C1682.9 558.439 1679.58 555.419 1677.26 557.751L1677.23 557.701Z" fill="white"/>
<path d="M1737.18 571.077C1717.24 564.5 1704.94 593.331 1702.48 607.977C1702.41 608.253 1702.61 608.607 1702.81 608.792C1701.01 618.978 1702.26 629.252 1710.1 636.181C1726.2 650.369 1746.18 630.89 1752.44 616.631C1760.13 599.071 1757.2 577.676 1737.14 571.066L1737.18 571.077ZM1748.15 610.53C1743.95 624.299 1729.08 641.168 1713.64 631.764C1705.93 627.088 1705.38 614.795 1707.34 603.548C1713.28 593.758 1718.27 580.846 1728.81 577.117C1736.93 574.244 1746.12 581.848 1748.88 588.97C1751.56 595.812 1750.23 603.744 1748.15 610.53Z" fill="white"/>
<path d="M1545.61 673.107C1549.35 660.996 1554.64 649.576 1559.18 637.776C1560.31 634.813 1555.84 633.174 1554.26 635.626C1547.84 645.582 1539.19 653.205 1531.67 662.125C1531.41 662.436 1531.63 662.88 1532.04 662.782C1537.47 661.454 1542.11 657.815 1546.27 653.447C1543.96 659.4 1541.88 665.46 1539.94 671.474C1538.05 677.29 1530.12 696.913 1536.7 701.488C1537.24 701.852 1537.93 701.662 1538.38 701.277C1541.47 698.908 1540.52 694.125 1541.07 690.619C1542.02 684.666 1543.75 678.805 1545.54 673.046L1545.61 673.107Z" fill="white"/>
<path d="M1598.77 655.319C1594.97 648.376 1585.7 647.903 1580.98 652.753C1580.74 652.388 1580.3 652.137 1579.89 652.404C1572.27 656.783 1569.34 668.142 1568.58 676.149C1567.63 685.594 1570.93 693.548 1578.4 699.222C1588.5 706.912 1598.05 702.01 1601.58 690.778C1604.97 679.931 1604.3 665.346 1598.78 655.279L1598.77 655.319ZM1583.92 696.554C1569.07 688.978 1571.21 670.284 1578.43 657.576C1578.25 658.247 1578.18 658.951 1578.13 659.706C1578.12 660.681 1579.23 661.717 1580.2 661.307C1586.23 658.912 1589.74 650.485 1594.44 659.514C1598.39 667.138 1598.64 677.472 1597.21 685.759C1595.95 692.946 1592.18 700.788 1583.92 696.554Z" fill="white"/>
<path d="M1643.23 698.252C1646.2 685.412 1649.11 672.601 1653.88 660.31C1655.12 657.121 1650.47 655.646 1648.72 658.093C1640.88 668.884 1630.41 677.53 1621.22 687.089C1620.61 687.728 1621.34 688.784 1622.14 688.329C1630.51 683.523 1637.52 677.225 1644.28 670.563C1641.88 678.066 1639.86 685.719 1638.04 693.388C1635.85 702.399 1630.52 713.978 1631.13 723.178C1631.24 724.913 1633.52 726.321 1634.89 724.788C1640.67 718.276 1641.42 706.518 1643.32 698.234L1643.23 698.252Z" fill="white"/>
<path d="M1722.26 697.605C1721.17 689.376 1715.79 681.691 1708.42 677.959C1699.84 673.636 1690.31 676.837 1682.91 681.959C1675.62 687.025 1671.76 695.611 1671.2 704.271C1670.85 710.389 1672.73 715.05 1676.24 718.463C1679.58 723.532 1685.91 727.354 1692.71 728.751C1711.65 732.703 1724.58 715.122 1722.28 697.566L1722.26 697.605ZM1696.32 723.163C1691.8 723.213 1686.98 721.733 1683.23 719.189C1679.36 714.015 1677.89 707.595 1678.87 701.524C1678.9 701.406 1678.97 701.298 1679.04 701.191C1679.18 701.016 1679.16 700.796 1679.03 700.633C1679.95 696.162 1682.19 691.938 1685.78 688.558C1697.13 677.986 1711.73 683.745 1715.31 697.825C1718.58 710.584 1709.29 723.055 1696.32 723.163Z" fill="white"/>
<path d="M1549.2 756.107C1550.47 747.517 1547.78 737.093 1540.51 731.733C1536.95 729.114 1532.51 728.421 1528.26 729.613C1525.85 730.301 1523.57 731.619 1521.64 733.166C1518.58 735.586 1518.26 738.263 1516.92 741.638C1516.66 742.287 1517.54 742.919 1518.07 742.556C1518.08 742.516 1518.17 742.499 1518.22 742.471C1510.69 752.624 1516.66 768.056 1528.66 771.252C1538.94 774.013 1547.75 765.667 1549.18 756.057L1549.2 756.107ZM1533.99 765.594C1521.41 768.41 1513.72 752.451 1519.33 742.482C1519.42 742.296 1519.35 742.105 1519.25 741.993C1520.88 741.173 1522.7 740.618 1524.23 739.557C1525.76 738.497 1527.19 737.363 1528.91 736.527C1531.33 735.332 1533.9 735.584 1536.17 736.902C1541.29 739.874 1543.15 747.209 1543.19 752.673C1543.24 758.863 1540.29 764.211 1534.03 765.605L1533.99 765.594Z" fill="white"/>
<path d="M1600.83 766.382C1599.36 758.897 1592.08 752.85 1586.01 748.976C1579.91 745.092 1571.4 741.596 1564.23 744.566C1561.09 745.899 1559.06 748.737 1558.12 751.924C1556.53 757.44 1558.97 761.022 1561.66 765.565C1561.88 765.97 1562.3 766.001 1562.64 765.842C1562.67 769.852 1564.23 773.827 1567.16 777.034C1572.47 782.827 1580.19 782.907 1587.33 781.588C1595.13 780.158 1602.6 775.227 1600.83 766.382ZM1593.14 772.57C1590.06 775.497 1584.61 776.098 1580.64 776.602C1570.16 777.876 1561.42 766.862 1566.31 757.032C1566.52 756.58 1565.97 756.256 1565.65 756.635C1565.1 757.376 1564.63 758.138 1564.2 758.912C1564.29 758.467 1564.37 758.021 1564.37 757.554C1564.43 755.824 1564.54 754.365 1565.17 752.751C1565.67 751.402 1567.48 750.588 1569.62 750.549C1575.99 750.422 1583.4 754.971 1588.24 759.397C1590.48 761.431 1592.97 764.218 1593.97 766.714C1595.05 769.401 1594.85 770.877 1593.09 772.598L1593.14 772.57Z" fill="white"/>
<path d="M1651.58 773.726C1649.24 765.063 1641.14 756.952 1632.27 755.188C1622.76 753.286 1609.48 763.146 1614.57 773.687C1614.74 773.991 1615.24 774.174 1615.51 773.953C1615.73 773.8 1615.91 773.596 1616.14 773.404C1615.05 776.676 1615.33 780.206 1617.58 783.862C1621.4 790.129 1629.65 793.169 1636.63 792.403C1646.77 791.328 1654.42 784.363 1651.58 773.726ZM1641.09 785.177C1630.28 790.491 1610.28 779.425 1621.32 767.233C1621.39 767.126 1621.41 767.047 1621.4 766.917C1623.41 764.159 1625.68 761.855 1629.68 761.999C1635.42 762.162 1640.75 767.448 1643.53 772.064C1646.43 776.922 1646.66 782.441 1641.09 785.177Z" fill="white"/>
<path d="M1689.66 797.832C1691.34 785.055 1693.79 773.136 1699.56 761.51C1701.12 758.371 1697.56 755.583 1694.87 757.765C1684.87 765.947 1673.54 772.948 1665.62 783.288C1665.22 783.814 1665.93 784.312 1666.41 784.107C1674.71 780.304 1682.07 774.872 1689.36 769.339C1686.97 775.907 1685.43 782.758 1684.25 789.838C1682.69 799.195 1679.5 810.228 1682.31 819.491C1682.47 819.964 1683.18 820.332 1683.57 819.845C1688.65 813.563 1688.67 805.604 1689.7 797.843L1689.66 797.832Z" fill="white"/>
<path d="M1582.7 404.199C1590.56 395.459 1600.26 389.536 1612.23 389.658C1621.01 389.778 1628.98 391.378 1637.44 388.216C1638.02 387.994 1638 387.008 1637.3 387.068C1627.95 387.767 1619.12 385.586 1609.88 385.293C1601.58 385.007 1594.02 388.722 1587.55 393.592C1571.38 405.708 1561.85 425.435 1554.21 443.564C1534.09 491.285 1519.52 541.671 1506 591.501C1498.79 618.099 1491.9 644.786 1484.64 671.412C1479.19 691.265 1472.65 711.067 1469.49 731.433C1464.65 762.317 1476.62 792.764 1506.63 805.448C1507.24 805.704 1507.66 804.801 1507.27 804.392C1496.11 792.613 1483.06 782.093 1477.34 766.389C1472.43 752.957 1474.09 738.091 1476.78 724.408C1480.42 705.836 1486.34 687.609 1491.26 669.352C1498.09 643.927 1504.57 618.442 1511.37 593.007C1523.5 547.515 1537.09 502.563 1553.37 458.364C1560.49 439.066 1568.83 419.644 1582.79 404.182L1582.7 404.199Z" fill="white"/>
<path d="M1785.37 670.638C1795.62 640.465 1805.38 610.109 1813.24 579.221C1821.69 546.072 1829.49 510.397 1825.82 476.017C1823.38 453.183 1811.49 426.718 1784.82 426.984C1783.92 426.988 1783.8 428.189 1784.62 428.461C1795.1 432.042 1804.07 436.775 1810.33 446.156C1816.73 455.79 1819.12 467.618 1820.15 478.94C1822.91 509.274 1816.43 540.42 1809.43 569.76C1801.93 601.175 1792.05 631.966 1781.77 662.516C1774.81 683.222 1766.74 703.786 1761.66 725.062C1754.97 753.167 1749.67 781.581 1739.43 808.69C1730.36 832.639 1714.95 860.426 1685.31 857.901C1684.36 857.805 1683.88 859.373 1684.79 859.757C1711.52 871.73 1730.03 845.663 1740.08 823.951C1753.46 795.081 1759.3 763.2 1766.18 732.334C1770.9 711.257 1778.47 690.977 1785.4 670.519L1785.37 670.638Z" fill="white"/>
</g>
<g opacity="0.5" clip-path="url(#clip1_142_3)">
<path d="M385.917 375.718C356.57 330.959 322.786 289.216 289.663 247.246C273.059 226.197 256.416 205.12 240.406 183.611C232.469 172.968 224.78 162.12 217.125 151.266C209.639 140.632 203.063 128.804 194.508 118.971C193.077 117.333 190.233 118.821 191.142 120.945C191.246 121.207 191.385 121.465 191.528 121.756C191.237 122.418 190.945 123.079 190.765 123.794C179.303 144.237 172.443 166.237 165.827 188.756C158.229 214.517 149.813 239.594 140.117 264.671C129.445 292.263 119.358 320.087 109.121 347.828C104.814 359.499 100.875 371.085 97.5101 383.078C94.5489 393.704 89.0343 404.121 86.7324 414.761C86.4266 414.802 86.1548 414.839 85.8399 414.812C84.9428 414.83 84.7971 416.058 85.3799 416.533C90.8361 421.083 97.6351 419.683 104.203 418.625C116.796 416.583 129.399 415.126 142.07 413.66C169.527 410.513 197.126 408.417 224.558 404.823C253.072 401.05 281.431 396.122 309.813 391.364C324.023 389 338.208 386.708 352.446 384.547C361.261 383.221 371.945 383.44 380.232 379.732C380.279 379.829 380.361 379.921 380.409 380.019C382.885 383.762 388.326 379.47 385.888 375.756L385.917 375.718ZM360.079 376.505C345.832 378.598 331.652 380.924 317.446 383.322C290.487 387.854 263.555 392.589 236.536 396.679C210.299 400.664 183.89 403.118 157.497 405.95C143.929 407.433 130.413 409.047 116.896 410.903C110.712 411.737 104.677 412.896 98.6289 413.711C101.277 411.799 103.659 409.198 105.696 407.369C109.491 403.955 113.317 400.261 115.266 395.472C115.34 395.255 115.134 395.006 114.905 395.106C110.427 397.299 106.6 400.475 102.687 403.524C101.184 404.694 99.2399 405.924 97.3478 407.284C99.3942 402.448 100.688 397.16 102.098 392.479C105.901 379.632 109.417 366.963 114.014 354.355C124.139 326.56 134.124 298.749 144.613 271.078C154.17 245.744 162.82 220.601 170.134 194.533C176.07 173.383 182.346 152.188 190.086 131.59C190.456 137.413 192.165 143.678 192.746 148.506C193.939 158.123 195.487 166.275 198.414 175.416C198.66 176.212 200.019 176.029 200.079 175.192C200.515 165.597 199.918 157.317 198.42 147.741C197.719 143.31 197.664 137.513 196.738 132.179C206.853 150.509 221.133 167.655 233.237 184.059C249.183 205.611 265.699 226.774 282.27 247.827C313.732 287.741 344.999 327.75 373.5 369.825C371.724 369.477 369.947 369.129 368.361 368.652C362.382 366.901 356.662 364.493 350.622 363.062C350.017 362.936 349.846 363.719 350.202 364.051C354.807 368.44 360.713 370.685 366.655 372.682C368.033 373.153 369.522 373.678 371.079 374.193C367.093 374.903 363.123 375.991 360.002 376.446L360.079 376.505Z" fill="white"/>
<path d="M202.529 194.14C202.195 193.459 201.243 193.588 201.102 194.332C199.391 203.2 201.36 214.474 204.721 222.728C205.082 223.612 206.441 223.429 206.556 222.48C207.607 213.598 206.526 202.239 202.529 194.14Z" fill="white"/>
<path d="M226.443 319.993C226.725 319.264 226.518 318.497 225.897 317.994C225.777 317.872 225.661 317.783 225.545 317.695C225.518 317.492 225.486 317.254 225.459 317.051C225.271 315.659 224.531 314.792 223.57 314.334C223.631 314.015 223.692 313.696 223.685 313.386C223.597 310.426 223.082 304.553 220 303.241C219.889 303.187 219.719 303.21 219.626 303.291C217.001 305.373 218.021 311.143 218.758 314.05C218.838 314.384 218.986 314.71 219.201 315.026C218.864 315.348 218.57 315.733 218.358 316.211C218.358 316.211 218.315 316.148 218.276 316.118C218.206 316.37 218.166 316.582 218.125 316.795C218.13 316.829 218.066 316.872 218.076 316.94C217.657 317.169 217.324 317.525 217.121 318.071C216.918 318.616 216.948 319.096 216.88 319.623C216.658 321.312 217.999 322.789 219.519 323.033C219.596 323.092 219.606 323.16 219.683 323.219C221.445 324.743 224.908 324 225.9 321.863C226.017 321.709 226.164 321.516 226.273 321.294C226.41 321.034 227.012 318.569 226.482 320.022L226.443 319.993Z" fill="white"/>
<path d="M167.947 359.005C163.717 360.474 159.917 363.335 156.198 365.771C151.685 368.729 147.642 371.07 144.875 375.693C144.678 376.03 144.867 376.661 145.367 376.525C150.076 375.268 153.387 372.887 157.4 370.066C161.442 367.206 166.085 364.439 168.989 360.316C169.479 359.593 168.778 358.755 167.986 359.035L167.947 359.005Z" fill="white"/>
<path d="M282.263 340.697C278.245 337.058 272.996 335.588 267.929 333.922C261.991 331.958 256.015 330.484 249.791 329.733C249.229 329.671 248.995 330.497 249.541 330.7C255.176 332.981 260.864 335.151 266.524 337.359C271.492 339.315 276.393 341.799 281.798 341.865C282.457 341.88 282.778 341.18 282.268 340.73L282.263 340.697Z" fill="white"/>
<path d="M329.729 354.338C326.8 352.625 323.112 352.466 319.795 351.98C316.052 351.414 312.092 351.291 308.405 350.371C307.94 350.261 307.857 350.929 308.195 351.125C311.679 353.108 314.832 354.687 318.751 355.783C321.91 356.636 325.672 357.856 328.958 357.344C330.249 357.17 331.085 355.157 329.734 354.372L329.729 354.338Z" fill="white"/>
<path d="M261.436 267.012C260.356 265.153 259.196 263.997 256.978 263.708C256.978 263.708 256.91 263.717 256.876 263.722C253.596 261.711 248.616 263.004 244.924 263.329C235.89 264.063 226.914 265.48 218.024 267.023C217.379 267.11 216.743 267.265 216.136 267.382C215.614 263.513 215.052 259.34 212.676 256.343C212.547 256.153 212.241 256.194 212.166 256.412C210.619 260.075 211.361 264.294 211.819 268.205C204.526 269.534 197.251 270.998 190.024 272.559C184.881 273.667 177.395 274.33 172.147 276.972C171.555 276.43 170.752 276.124 169.699 276.266C166.268 276.728 166.314 281.179 168.792 282.365C170.185 286.289 173.472 289.37 176.058 292.649C181.722 299.763 187.233 307.035 192.648 314.356C196.494 319.538 200.277 324.763 204.089 329.95C201.275 331.4 198.647 333.205 196.135 335.099C193.809 336.829 188.805 339.231 188.798 342.514C188.796 343.274 189.146 343.814 189.93 343.985C193.139 344.693 196.615 340.458 198.89 338.597C201.325 336.645 203.708 334.562 205.744 332.215C211.766 340.455 217.755 348.7 223.807 356.901C223.98 357.154 224.211 357.33 224.438 357.473C224.388 357.618 224.338 357.762 224.289 357.907C223.006 359.428 223.866 362.214 226.265 362.305C226.299 362.301 226.342 362.364 226.381 362.393C227.376 362.846 228.576 362.512 229.425 361.879C230.083 361.376 230.37 360.681 230.623 359.99C230.883 359.61 231.032 359.175 231.138 358.677C231.163 358.605 231.192 358.566 231.217 358.494L231.183 358.498C231.183 358.498 231.248 358.213 231.264 358.073C231.282 358.209 231.242 358.421 231.235 358.63C231.364 358.301 231.459 357.978 231.451 357.668C231.509 356.554 231.08 355.679 230.474 355.035C237.687 343.871 240.786 329.392 244.44 316.98C246.924 308.457 249.301 299.914 251.895 291.445C253.863 284.996 257.194 278.397 257.946 271.662C260.278 272.281 262.66 269.161 261.479 267.075L261.436 267.012ZM248.155 285.765C245.415 294.184 243.004 302.732 240.55 311.216C236.578 325.122 230.461 339.283 227.471 353.54C217.259 339.369 207.135 325.083 196.703 311.08C191.255 303.764 185.621 296.611 179.86 289.545C177.585 286.777 175.356 283.588 172.445 281.493C172.533 281.377 172.583 281.232 172.671 281.117C177.639 281.276 183.085 279.333 187.762 278.357C195.91 276.706 204.048 275.23 212.224 273.782C212.528 277.058 213.112 280.365 215.221 282.672C215.63 283.135 216.309 283.044 216.58 282.489C218.088 279.556 217.596 276.168 216.987 272.933C225.581 271.498 234.235 270.263 242.935 269.367C246.075 269.047 250.366 269.575 253.892 268.788C254.031 269.046 254.174 269.338 254.342 269.557C254.428 269.683 254.471 269.747 254.553 269.839C251.199 274.472 249.931 280.205 248.146 285.697L248.155 285.765Z" fill="white"/>
<path d="M261.483 108.735C243.89 109.102 224.398 110.52 207.607 116.065C207.277 116.179 207.345 116.688 207.694 116.71C225.359 117.646 244.526 113.819 261.588 109.516C262.089 109.379 261.997 108.701 261.478 108.701L261.483 108.735Z" fill="white"/>
<path d="M308.001 103.537C298.309 103.496 287.928 104.238 278.705 107.416C278.243 107.582 278.344 108.329 278.833 108.366C288.602 108.984 298.776 106.957 308.111 104.351C308.509 104.229 308.418 103.55 308.001 103.537Z" fill="white"/>
<path d="M324.807 99.1299C324.331 99.1941 324.432 99.9406 324.907 99.8765C325.383 99.8124 325.282 99.0658 324.807 99.1299Z" fill="white"/>
<path d="M383.06 92.4537C375.018 92.8465 367.24 93.653 359.37 95.5774C358.899 95.6754 358.986 96.3201 359.471 96.3239C367.535 96.1007 375.25 94.8192 383.142 93.0645C383.55 93.0096 383.472 92.4327 383.06 92.4537Z" fill="white"/>
<path d="M430.375 368.068C425.786 366.613 421.15 367.894 416.5 368.556C415.175 368.734 413.859 368.981 412.568 369.155C423.46 356.286 422.022 335.093 423.056 319.407C423.116 318.57 421.954 318.415 421.787 319.232C419.798 328.345 417.868 337.381 414.988 346.302C414.059 349.157 412.1 356.953 409.616 361.883C406.451 319.399 400.15 277.269 394.447 234.955C391.401 212.355 388.351 189.722 385.305 167.123C382.968 149.783 381.822 131.523 377.175 114.495C383.381 121.017 392.624 126.716 396.437 130.624C396.923 131.146 397.964 130.66 397.592 129.95C395.023 125.011 391.343 120.29 387.702 116.116C386.064 114.229 379.421 108.319 377.773 104.049C378.057 102.56 378.273 101.08 378.352 99.618C378.462 96.8393 374.642 94.4174 372.82 97.3233C371.253 99.8147 370.893 102.282 371.359 104.706C370.345 108.989 368.628 113.194 367.174 117.294C365.472 122.118 364.832 126.35 364.079 131.288C364.039 131.501 364.329 131.6 364.446 131.446C365.389 129.972 367.017 128.958 368.066 127.504C369.846 125.053 371.202 122.279 372.455 119.518C372.722 118.93 372.984 118.307 373.246 117.684C373.623 133.319 376.72 149.105 378.791 164.477C381.993 188.23 385.194 211.983 388.395 235.736C394.208 278.865 399.399 322.008 407.878 364.639C407.814 364.682 407.789 364.754 407.76 364.793C403.814 359.382 395.103 347.877 390.3 349.457C390.164 349.475 390.08 349.625 390.064 349.765C389.536 353.291 395.947 358.508 397.994 360.858C400.981 364.29 402.903 368.281 406.523 370.246C404.648 370.706 402.787 371.268 400.987 372.028C400.593 372.185 400.675 372.796 401.096 372.843C406.462 373.64 411.719 372.862 417.057 372.177C421.717 371.584 426.56 371.588 430.567 368.975C430.951 368.75 430.86 368.071 430.425 367.923L430.375 368.068Z" fill="white"/>
<path d="M479.824 362.544C470.487 361.28 461.786 363.973 452.78 366.188C452.177 366.339 452.287 367.153 452.908 367.138C462.146 366.895 471.249 367.189 479.952 363.494C480.409 363.294 480.313 362.581 479.819 362.51L479.824 362.544Z" fill="white"/>
<path d="M526.249 357.427C516.676 355.953 507.348 358.869 498.133 361.078C497.361 361.251 497.503 362.303 498.298 362.299C507.765 361.956 517.536 362.332 526.377 358.377C526.801 358.182 526.714 357.537 526.254 357.461L526.249 357.427Z" fill="white"/>
<path d="M359.48 250.654C352.929 250.811 346.637 250.588 340.148 251.463C335.494 252.09 329.352 251.95 325.967 255.585C325.879 255.701 325.907 255.904 326.022 255.992C329.722 258.292 334.218 256.995 338.338 256.509C345.69 255.622 352.445 253.64 359.611 251.88C360.378 251.673 360.241 250.655 359.446 250.659L359.48 250.654Z" fill="white"/>
<path d="M444.318 237.182C432.95 237.021 420.109 236.713 409.582 241.76C409.061 242.003 409.166 242.783 409.733 242.879C421.187 244.963 433.488 241.267 444.442 238.098C444.874 237.971 444.769 237.19 444.318 237.182Z" fill="white"/>
<path d="M513.05 227.919C501.096 228.286 490.291 229.224 478.583 232.184C477.514 232.466 477.706 233.891 478.811 233.88C490.886 233.635 501.553 231.679 513.178 228.869C513.78 228.719 513.671 227.904 513.05 227.919Z" fill="white"/>
<path d="M465.508 329.474C457.31 327.677 450.585 330.656 442.811 332.775C442.51 332.85 442.565 333.258 442.875 333.25C450.899 333.24 458.206 334.328 465.636 330.425C466.089 330.191 466.007 329.58 465.508 329.474Z" fill="white"/>
<path d="M518.253 323.506C515.081 323.588 511.917 323.462 508.813 323.535C510.75 318.402 512.288 314.153 511.345 308.441C511.267 307.864 510.415 307.702 510.183 308.287C508.751 312.038 506.794 315.48 505.174 319.119C505.088 305.138 503.094 291.622 501.214 277.675C500.121 269.565 498.994 261.46 497.867 253.355C497.41 249.961 497.197 246.328 496.556 242.856C499.746 245.224 502.873 247.636 505.609 250.48C506.133 251.031 507.034 250.53 506.764 249.806C504.519 243.164 499.907 237.429 493.492 234.493C493.406 234.367 493.358 234.269 493.306 234.138C493.176 233.948 492.871 233.99 492.796 234.207C491.702 234.043 490.388 234.566 490.021 235.687C487.888 242.193 485.572 248.62 483.434 255.093C483.285 255.527 483.753 255.913 484.128 255.621C488.148 252.592 490.14 247.866 492.044 243.256C492.301 245.675 492.703 248.143 493.032 250.586C494.276 259.816 495.452 269.055 496.7 278.318C498.534 291.925 500.177 305.144 503.614 318.327C498.939 314.95 494.212 311.959 489.204 308.937C488.789 308.682 488.262 309.133 488.563 309.576C492.662 315.347 498.271 318.978 503.123 323.921C500.133 324.324 497.223 325.062 494.341 326.521C493.757 326.808 493.867 327.622 494.506 327.743C502.835 329.488 510.396 326.293 518.329 324.325C518.863 324.184 518.767 323.471 518.214 323.477L518.253 323.506Z" fill="white"/>
<path d="M379.335 220.615C374.6 222.186 371.026 221.078 368.531 216.682C367.221 214.405 366.25 211.565 365.705 208.805C365.652 208.156 365.599 207.506 365.474 206.832C365.666 206.461 365.742 206.002 365.688 205.594C365.55 204.576 364.772 203.679 363.481 203.853C363.311 203.876 363.175 203.895 363.005 203.917C362.428 203.995 362.014 204.258 361.724 204.677C361.396 205.067 361.188 205.579 361.296 206.117C361.3 206.151 361.305 206.185 361.309 206.219C361.377 208.006 361.441 209.76 361.635 211.461C361.235 215.419 359.166 218.807 354.43 219.342C353.071 219.525 351.077 219.103 351.226 217.39C351.571 213.785 356.648 210.648 359.849 210.527C360.261 210.506 360.666 210.175 360.791 209.813C360.786 209.779 360.845 209.702 360.836 209.634C360.831 209.6 360.822 209.532 360.851 209.494C360.953 208.962 360.603 208.422 360.125 208.21C352.951 205.031 341.839 219.346 351.407 222.582C354.961 223.796 359.05 222.312 361.78 219.975C362.366 219.447 362.879 218.894 363.35 218.278C364.036 219.775 364.892 221.249 366.146 222.6C370.1 227.042 376.108 225.161 380.005 221.734C380.595 221.24 380.064 220.379 379.335 220.615Z" fill="white"/>
<path d="M554.849 273.694C551.881 276.824 548.618 278.024 544.464 278.515C542.047 278.806 539.2 277.186 537.065 278.544C534.419 280.214 534.474 286.011 530.629 281.865C529.254 280.392 528.285 278.588 527.501 276.62C531.291 269.58 533.069 260.703 532.428 253.119C532.317 251.787 530.611 251.187 529.611 251.979C521.823 258.107 521.417 268.699 524.434 277.483C524.252 278.44 524.07 279.397 523.96 280.38C523.893 280.907 524.588 281.193 524.912 280.77C525.088 280.538 525.256 280.24 525.427 279.975C526.752 282.871 528.817 285.875 531.883 286.809C535.017 287.734 536.761 285.53 538.485 283.432C541.581 284.327 543.991 284.762 547.54 283.628C551.55 282.327 554.379 277.904 556.076 274.324C556.426 273.586 555.397 273.137 554.913 273.651L554.849 273.694ZM528.986 257.867C528.697 262.397 527.368 266.653 526.112 270.934C525.626 266.301 526.532 261.48 528.986 257.867Z" fill="white"/>
<path d="M104.252 457.487C98.991 455.155 93.6485 454.528 88.3072 454.937C85.8231 450.366 82.9111 445.956 80.0128 441.648C78.8008 439.842 75.6072 440.272 74.9165 442.335C72.9439 448.232 71.155 454.208 69.1869 460.14C65.5235 461.704 61.9509 463.43 58.5141 465.137C57.7353 465.518 58.226 466.592 59.0231 466.346C61.9489 465.468 64.9766 464.577 68.0135 463.753C67.9592 463.864 67.939 463.97 67.9187 464.076C65.8736 469.949 62.7635 475.62 61.2555 481.627C61.0908 482.202 61.8526 482.721 62.3394 482.483C67.6396 479.972 70.2433 473.368 72.3211 468.251C73.1522 466.204 73.8768 464.137 74.6014 462.07C77.652 461.348 80.7163 460.728 83.8328 460.239C86.8415 465.879 89.8796 471.481 93.5652 476.754C94.035 477.417 94.9314 476.881 94.9079 476.193C94.6603 470.25 92.9793 464.707 90.5736 459.434C94.9885 459.081 99.3517 459.115 103.691 459.739C105.032 459.938 105.469 458.048 104.29 457.516L104.252 457.487ZM76.195 457.468C76.9895 455.149 77.7455 452.802 78.506 450.488C79.5436 452.283 80.5517 454.117 81.5598 455.95C79.782 456.362 77.9839 456.881 76.229 457.463L76.195 457.468Z" fill="white"/>
<path d="M402.476 416.707C405.035 413.875 406.44 410.438 405.186 406.012C402.731 397.291 389.541 396.443 382.503 397.357C380.567 397.618 379.683 399.533 380.295 401.247C383.855 411.754 382.541 424.334 388.665 433.839C389.317 434.822 390.695 434.015 390.631 433.022C390.013 423.051 388.818 412.64 386.425 402.84C390.23 402.845 393.974 403.411 397.306 405.553C404.199 409.98 396.905 416.18 392.454 418.576C389.937 419.917 391.639 424.076 394.22 422.691C400.448 419.364 406.314 420.543 402.604 428.437C399.407 435.259 389.605 438.757 382.641 438.935C381.885 438.968 381.968 440.097 382.641 440.214C393.145 442.184 405.728 439.037 408.048 426.736C409.223 420.566 406.455 417.484 402.476 416.707Z" fill="white"/>
<path d="M193.984 102.251C190.511 101.889 185.753 101.494 183.176 98.8011C180.926 96.4786 180.854 92.8607 181.314 89.862C181.764 87.0375 183.122 84.0214 185.448 82.2913C186.487 81.5295 190.448 82.1703 190.523 80.6746C190.778 76.667 184.69 77.1766 182.487 78.5445C178.847 80.7971 177.086 85.1804 176.243 89.198C173.897 100.535 183.307 109.528 194.099 103.617C194.645 103.302 194.657 102.367 193.921 102.294L193.984 102.251Z" fill="white"/>
</g>
<g clip-path="url(#clip2_142_3)">
<path d="M1087.48 179.466C1087.18 178.974 1086.4 178.777 1086 179.269C1084.68 180.893 1083.79 182.516 1082.86 184.287C1082.86 184.287 1082.81 184.238 1082.76 184.189C1081.53 183.106 1080.5 181.778 1079.56 180.45C1077.2 177.252 1075.19 173.858 1073.27 170.366C1077.4 163.38 1082.95 156.887 1085.9 149.361C1086.05 148.918 1085.51 148.623 1085.17 148.82C1078.78 152.362 1074.35 158.855 1070.42 165.053C1069.78 163.774 1069.09 162.495 1068.45 161.265C1066.78 157.969 1064.37 150.148 1060.98 148.18C1054.19 144.097 1049.23 162.249 1048 166.283C1047.85 166.824 1048.64 167.365 1048.98 166.873C1051.79 163.233 1059.6 156.297 1057.49 152.214C1058.77 154.723 1059.9 157.33 1061.08 159.888C1062.8 163.676 1064.62 167.513 1066.53 171.251C1062.21 178.531 1058.67 186.255 1057.59 194.716C1057.49 195.601 1058.67 195.699 1059.11 195.109C1063.29 189.354 1066.39 183.057 1069.68 176.81C1070.61 178.482 1071.5 180.253 1072.53 181.876C1074.79 185.517 1078.68 192.305 1083.84 191.813C1090.03 191.174 1090.08 183.549 1087.48 179.466Z" fill="white" fill-opacity="0.5"/>
<path d="M1167.27 157.133C1161.91 151.968 1153.55 153.395 1146.72 153.936C1138.12 154.624 1127.99 154.772 1119.73 157.182C1119.19 157.33 1119.14 158.019 1119.58 158.314C1125.53 162.298 1134.13 160.724 1140.87 160.331C1148.93 159.888 1159.35 161.511 1166.88 158.707C1167.52 158.461 1167.86 157.625 1167.32 157.133H1167.27Z" fill="white" fill-opacity="0.5"/>
<path d="M1165.35 168.201C1150.46 167.463 1135.31 165.545 1120.91 170.612C1120.12 170.907 1120.27 171.989 1121.11 172.038C1136.05 172.727 1150.85 172.383 1165.55 169.48C1166.34 169.333 1166.09 168.201 1165.35 168.152V168.201Z" fill="white" fill-opacity="0.5"/>
<path d="M1295.63 77.0492C1264.91 77.4427 1234.08 75.1307 1203.8 82.1159C1202.37 82.4603 1201.44 83.8376 1201.39 85.2642C1200.26 124.372 1199.96 163.872 1192.29 202.34C1191.16 194.814 1190.72 187.091 1189.93 179.761C1189.15 172.481 1189.34 163.872 1186.1 157.182C1185.61 156.149 1184.08 156.494 1183.79 157.477C1181.38 165.151 1183.39 174.498 1184.13 182.319C1185.21 193.879 1185.66 206.571 1189.29 217.688C1190.23 220.59 1194.65 220.885 1195.44 217.688C1204.53 182.565 1206.26 146.262 1207.24 110.155C1207.34 106.564 1205.62 88.3633 1209.75 87.4286C1220.81 84.8707 1232.26 84.182 1243.57 83.6409C1261.37 82.7554 1278.38 82.4603 1295.83 78.7217C1296.76 78.5249 1296.52 77.0984 1295.58 77.0984L1295.63 77.0492Z" fill="white" fill-opacity="0.5"/>
<path d="M1263.68 129.783C1261.86 129.537 1260.97 129.635 1259.35 130.373C1258.91 130.57 1258.47 131.012 1258.07 131.455C1257.78 130.029 1256.6 128.996 1255.07 128.946C1254.68 128.946 1254.24 128.946 1253.85 128.897C1252.08 128.799 1250.75 130.373 1250.7 132.045C1250.65 133.374 1251.09 134.751 1251.88 135.932C1251.49 140.408 1249.91 145.967 1245.19 145.278C1240.82 144.638 1239.05 138.588 1239 134.702C1240.57 133.374 1242 131.898 1243.13 130.816C1248.19 125.995 1253.11 119.748 1254.58 112.762C1255.47 108.679 1254.34 103.219 1250.16 101.547C1246.27 100.022 1242.88 105.384 1241.31 107.942C1237.33 114.533 1233.64 123.781 1233.34 132.39C1231.87 134.161 1230.59 136.03 1230.1 138.047C1230 138.391 1230.25 138.637 1230.54 138.637C1231.57 138.735 1232.61 138.49 1233.64 138.096C1233.93 139.719 1234.33 141.244 1234.92 142.72C1237.33 148.426 1243.18 152.853 1249.42 150.541C1254.29 148.771 1256.6 143.999 1257.58 139.031C1262.5 138.981 1262.06 134.259 1264.37 131.455C1264.96 130.717 1264.56 129.832 1263.68 129.733V129.783ZM1246.42 110.942C1247.01 109.958 1247.65 109.073 1248.39 108.237C1248.49 108.483 1248.63 108.876 1248.73 109.663C1249.32 114.09 1245.64 118.911 1243.08 122.207C1242.34 123.191 1241.36 124.175 1240.37 125.208C1241.75 120.19 1243.96 115.222 1246.42 110.991V110.942Z" fill="white" fill-opacity="0.5"/>
<path d="M1300.7 110.499C1296.13 109.27 1292.54 108.04 1287.77 107.991C1285.95 107.991 1284.23 108.187 1282.51 108.483C1284.42 105.777 1285.6 102.727 1283.93 99.8741C1281.18 95.1517 1274.79 98.054 1271.94 100.907C1271.59 101.251 1271.94 101.743 1272.38 101.694C1273.66 101.497 1280.3 99.4806 1280.64 102.53C1280.98 105.826 1276.61 109.024 1274.44 110.795C1272.72 112.221 1274.59 114.878 1276.51 114.386C1280.84 113.205 1285.46 113.549 1289.83 113.648C1293.72 113.697 1296.91 112.664 1300.65 111.729C1301.24 111.582 1301.24 110.647 1300.65 110.499H1300.7Z" fill="white" fill-opacity="0.5"/>
<path d="M1322.67 160.724C1305.61 161.757 1288.6 161.364 1271.49 161.757C1254.44 162.151 1235.7 160.675 1219.28 165.84C1218.79 165.988 1218.69 166.824 1219.28 166.922C1236.2 169.874 1254.44 168.152 1271.49 167.955C1288.8 167.709 1305.96 165.84 1322.87 162.2C1323.71 162.003 1323.51 160.626 1322.67 160.675V160.724Z" fill="white" fill-opacity="0.5"/>
<path d="M1271.94 211.391C1264.46 214.687 1254.73 213.507 1251.44 205.095C1247.9 196.044 1255.27 190.682 1263.68 191.125C1266.63 191.272 1267.02 186.943 1264.37 186.107C1249.72 181.483 1233.44 197.569 1233.49 211.933C1233.49 212.621 1234.48 212.916 1234.77 212.277C1237.38 207.259 1241.21 200.717 1246.13 196.044C1245.09 199.044 1245 202.635 1246.13 206.522C1247.5 211.244 1251.44 216.114 1256.25 217.59C1262.55 219.508 1267.96 216.212 1272.77 212.326C1273.36 211.834 1272.58 211.047 1271.99 211.342L1271.94 211.391Z" fill="white" fill-opacity="0.5"/>
<path d="M1387.22 156.74C1382.21 154.624 1374.93 155.165 1368.84 155.756C1368.1 152.755 1367.22 149.705 1366.28 146.606C1366.08 146.016 1365.2 145.967 1365.05 146.606C1364.27 149.804 1364.27 153.001 1364.51 156.198C1358.12 156.74 1351.63 157.871 1346.86 162.446C1346.57 162.741 1346.81 163.282 1347.21 163.282C1353.25 163.282 1359.3 162.495 1365.35 162.249C1366.33 167.709 1367.66 173.219 1367.36 178.777C1367.36 179.663 1368.59 179.761 1368.84 178.974C1370.66 173.268 1370.8 167.759 1370.07 162.249C1375.72 162.544 1382.36 163.43 1387.22 161.413C1389.54 160.478 1389.49 157.674 1387.22 156.74Z" fill="white" fill-opacity="0.5"/>
<path d="M1468.69 172.973C1455.12 178.236 1444.84 176.072 1443.07 160.183C1442.24 152.558 1445.19 130.422 1457.04 140.26C1459.89 142.622 1463.77 138.932 1461.17 136.128C1450.99 125.109 1440.96 132.882 1434.52 143.31C1430.44 149.951 1427.54 157.33 1424.79 164.61C1423.51 167.906 1422.38 171.251 1421.29 174.645C1420.7 176.416 1420.41 180.499 1419.23 181.926C1418.69 182.565 1419.38 183.697 1420.16 183.155C1425.03 179.761 1430.59 161.806 1437.27 149.115C1436.58 152.066 1436.24 155.018 1436.19 157.674C1436.09 165.545 1438.11 175.777 1445.09 180.499C1453.74 186.353 1463.18 181.188 1469.52 174.449C1470.06 173.858 1469.52 172.628 1468.64 172.973H1468.69Z" fill="white" fill-opacity="0.5"/>
<path d="M1517.51 137.211C1510.08 135.44 1501.18 138.49 1494.5 141.392C1494.06 141.589 1494.25 142.179 1494.6 142.326C1498.14 143.655 1500.99 143.753 1504.82 143.409C1508.95 143.015 1513.57 142.917 1517.51 141.589C1519.52 140.9 1519.82 137.752 1517.51 137.211Z" fill="white" fill-opacity="0.5"/>
<path d="M1598.48 120.338C1597 119.403 1593.07 118.813 1593.02 118.665C1592.04 116.402 1588.45 117.632 1588.5 119.895C1588.74 131.947 1578.86 122.994 1575.27 116.698C1577.19 114.484 1578.91 112.27 1580.48 110.254C1586.04 103.072 1591.69 93.7743 1590.12 84.3295C1589.92 83.0998 1588.35 82.3127 1587.17 82.657C1573.5 86.9859 1566.28 102.776 1569.87 116.206C1566.28 119.846 1562.59 122.945 1559.59 125.208C1558.75 125.847 1559.25 127.077 1560.33 126.929C1564.51 126.192 1568.19 123.732 1571.49 120.633C1571.49 120.731 1571.54 120.781 1571.59 120.83C1576.35 130.619 1590.32 134.603 1592.87 123.781C1594.5 123.535 1596.31 122.404 1598.43 121.469C1598.92 121.272 1598.82 120.535 1598.43 120.289L1598.48 120.338ZM1585.74 88.4616C1585.6 96.2831 1580.24 104.842 1573.8 112.123C1572.32 102.875 1577.49 92.6429 1585.74 88.4616Z" fill="white" fill-opacity="0.5"/>
<path d="M1605.66 150.148C1599.46 146.95 1591.64 148.623 1584.91 148.771C1574.93 148.967 1564.95 147.59 1555.02 147.934C1554.28 147.934 1553.99 148.967 1554.62 149.361C1561.7 153.493 1570.6 153.444 1578.57 153.739C1586.78 153.985 1598.23 155.362 1605.66 151.378C1606.1 151.132 1606.1 150.443 1605.66 150.197V150.148Z" fill="white" fill-opacity="0.5"/>
<path d="M1595.48 207.555C1588.25 202.734 1580.58 202.488 1572.52 201.307C1579.06 194.174 1586.68 186.648 1587.96 176.908C1588.6 172.038 1584.56 168.792 1580.34 167.759C1575.62 166.627 1570.6 173.071 1568.14 176.17C1567.9 176.465 1568.19 176.908 1568.54 176.711C1570.95 175.383 1578.42 172.333 1580.78 173.514C1584.71 175.432 1580.93 181.286 1579.55 183.647C1575.76 190.19 1570.16 195.404 1565.44 201.258C1564.26 202.685 1564.46 205.341 1566.62 205.734C1576.16 207.653 1585.3 209.079 1595.09 209.129C1595.92 209.129 1596.17 207.997 1595.48 207.555Z" fill="white" fill-opacity="0.5"/>
</g>
<defs>
<clipPath id="clip0_142_3">
<rect width="292.855" height="445.711" fill="white" transform="translate(1569.45 365) rotate(15.6785)"/>
</clipPath>
<clipPath id="clip1_142_3">
<rect width="519.138" height="387.319" fill="white" transform="translate(9 101.338) rotate(-7.67562)"/>
</clipPath>
<clipPath id="clip2_142_3">
<rect width="558" height="143" fill="white" transform="translate(1048 77)"/>
</clipPath>
</defs>
</svg>
