<svg width="430" height="578" viewBox="0 0 430 578" fill="none" xmlns="http://www.w3.org/2000/svg">
<path fill-rule="evenodd" clip-rule="evenodd" d="M430 -0.000183105H0V91.9455C-1.10953 93.2747 -2.19987 94.6272 -3.27039 96.0036C-19.6632 117.081 -18.2994 115.672 -13.8356 111.061C-7.74223 104.766 4.12773 92.5042 -15.5071 123.326C-33.9255 152.238 -66.8486 169.115 -99.0233 185.608C-138.846 206.022 -177.523 225.848 -186.132 267.179C-195.548 312.385 -160.817 344.18 -125.741 376.29C-108.31 392.248 -90.7942 408.283 -78.5694 426.081C-67.0951 442.787 -58.1481 462.534 -49.2467 482.181C-31.2472 521.909 -13.4346 561.224 24.7086 574.139C58.2667 585.502 92.3214 568.072 127.126 550.258C152.315 537.365 177.896 524.271 203.966 521.746C230.495 519.177 256.749 526.875 282.658 534.471C317.623 544.723 351.961 554.791 385.502 539.196C426.883 519.956 450.188 477.119 473.559 434.161C483.27 416.312 492.992 398.442 504.027 382.236C517.784 362.03 537.318 342.176 556.895 322.279C599.898 278.573 643.106 234.658 625.746 186.35C609.699 141.696 560.723 134.841 510.291 127.782C482.159 123.844 453.575 119.844 430 109.183V-0.000183105Z" fill="url(#paint0_linear_230_24630)"/>
<defs>
<linearGradient id="paint0_linear_230_24630" x1="220.992" y1="-0.000183105" x2="220.992" y2="577.761" gradientUnits="userSpaceOnUse">
<stop stop-color="#FFE689" stop-opacity="0"/>
<stop offset="0.9999" stop-color="#FFE689"/>
<stop offset="1" stop-color="#FFE689"/>
</linearGradient>
</defs>
</svg>
