<svg width="399" height="833" viewBox="0 0 399 833" fill="none" xmlns="http://www.w3.org/2000/svg">
<path fill-rule="evenodd" clip-rule="evenodd" d="M280.362 198.887C331.689 115.136 321.407 112.877 596.154 6.44251C663.583 -109.043 612.353 -190.209 694.295 -211.432C779.15 -233.41 738.365 -307.449 790.818 -244.045C846.669 -176.533 755.927 -15.0723 808.316 56.2684C876.214 148.728 1073.84 62.8708 1105.36 184.277C1132.1 287.287 987.101 389.589 921.21 491.177C864.885 578.018 827.072 692.286 745.391 739.264C663.96 786.099 587.325 716.313 502.785 731.832C418.564 747.292 331.871 852.539 256.017 829.098C181.263 805.996 173.751 689.599 132.288 617.337C88.2581 540.601 -22.0674 492.859 3.91325 389.727C32.6011 275.848 218.177 300.355 280.362 198.887Z" fill="url(#paint0_linear_230_14654)"/>
<defs>
<linearGradient id="paint0_linear_230_14654" x1="120" y1="871" x2="719" y2="72.5" gradientUnits="userSpaceOnUse">
<stop stop-color="#FFE689" stop-opacity="0"/>
<stop offset="0.484375" stop-color="#FFE689"/>
<stop offset="0.807292" stop-color="#FFE689" stop-opacity="0"/>
</linearGradient>
</defs>
</svg>
