<svg width="60" height="60" viewBox="0 0 60 60" fill="none" xmlns="http://www.w3.org/2000/svg">
<path d="M50.625 3.75H9.375C7.88316 3.75 6.45242 4.34263 5.39752 5.39752C4.34263 6.45242 3.75 7.88316 3.75 9.375L3.75 50.625C3.75 52.1168 4.34263 53.5476 5.39752 54.6025C6.45242 55.6574 7.88316 56.25 9.375 56.25H25.459V38.4012H18.0762V30H25.459V23.5969C25.459 16.3137 29.7949 12.2906 36.4359 12.2906C39.6164 12.2906 42.9422 12.8578 42.9422 12.8578V20.0063H39.2777C35.6672 20.0063 34.541 22.2469 34.541 24.5449V30H42.6012L41.3121 38.4012H34.541V56.25H50.625C52.1168 56.25 53.5476 55.6574 54.6025 54.6025C55.6574 53.5476 56.25 52.1168 56.25 50.625V9.375C56.25 7.88316 55.6574 6.45242 54.6025 5.39752C53.5476 4.34263 52.1168 3.75 50.625 3.75Z" fill="#3C2011"/>
</svg>
