<svg width="981" height="662" viewBox="0 0 981 662" fill="none" xmlns="http://www.w3.org/2000/svg">
<g clip-path="url(#clip0_81_165)">
<path d="M302.304 377.807L43.8141 496.317L272.695 558.992L536.889 397.173L302.304 377.807Z" fill="#E3E9F2"/>
<path d="M323.944 372.121L93.9095 533.918L347.871 550.864L385.426 514.551L399.254 533.185L503.862 392.62L323.944 372.121Z" fill="#F0F3FF"/>
<path d="M399.254 533.185L347.871 550.863L385.426 514.551L399.254 533.185Z" fill="#E3E9F2"/>
<g style="mix-blend-mode:multiply" opacity="0.2">
<path d="M63.1686 456.428L0 426.157C0 426.157 30.7631 257.275 479.069 265.582C925.112 273.844 972.299 391.91 972.299 391.91L899.764 434.774L773.494 456.34L562.858 547.776L613.597 436.795L167.554 426.179L63.1686 456.451V456.428Z" fill="#452873"/>
</g>
<path d="M953.544 585.222L583.966 662L476.783 522.613L807.986 461.581L953.544 585.222Z" fill="#E3E9F2"/>
<path d="M981 606.831L605.207 642.167L514.116 491.764L850.046 467.822L981 606.831Z" fill="#F0F3FF"/>
<path d="M780.996 0H151.241C140.699 0 132.152 8.55146 132.152 19.1002V396.196C132.152 406.745 140.699 415.296 151.241 415.296H780.996C791.538 415.296 800.084 406.745 800.084 396.196V19.1002C800.084 8.55146 791.538 0 780.996 0Z" fill="#B6543F"/>
<mask id="mask0_81_165" style="mask-type:luminance" maskUnits="userSpaceOnUse" x="132" y="0" width="669" height="416">
<path d="M780.996 0H151.241C140.699 0 132.152 8.55146 132.152 19.1002V396.196C132.152 406.745 140.699 415.296 151.241 415.296H780.996C791.538 415.296 800.084 406.745 800.084 396.196V19.1002C800.084 8.55146 791.538 0 780.996 0Z" fill="white"/>
</mask>
<g mask="url(#mask0_81_165)">
<g style="mix-blend-mode:multiply" opacity="0.2">
<path d="M137.901 -15.2803C138.944 -12.1709 138.944 404.303 138.944 404.303L843.343 411.543L841.279 428.089L117.259 415.696L107.937 -13.2148L137.879 -15.2803H137.901Z" fill="#452873"/>
</g>
</g>
<path d="M769.21 29.4053H163.026V385.913H769.21V29.4053Z" fill="#3B7157"/>
<mask id="mask1_81_165" style="mask-type:luminance" maskUnits="userSpaceOnUse" x="163" y="29" width="607" height="357">
<path d="M769.21 29.4053H163.026V385.913H769.21V29.4053Z" fill="white"/>
</mask>
<g mask="url(#mask1_81_165)">
<g style="mix-blend-mode:multiply" opacity="0.2">
<path d="M147.09 43.0643L754.006 42.7978L745.305 405.946L792.049 396.596L806.987 -67.2949L148.977 -18.6782L147.09 50.5489" fill="#452873"/>
</g>
</g>
<path d="M292.005 101.719C298.331 94.3681 304.279 86.6614 309.806 78.6881L303.591 77.0002C302.304 91.392 301.105 105.784 299.973 120.198C299.64 124.484 306.299 124.462 306.632 120.198C307.764 105.784 308.962 91.392 310.25 77.0002C310.56 73.4245 305.744 72.8692 304.035 75.3123C298.819 82.8191 293.226 90.0594 287.277 96.9888C284.503 100.231 289.186 104.962 291.983 101.697L292.005 101.719Z" fill="white"/>
<path d="M328.517 105.295C329.271 105.184 330.026 105.051 330.781 104.94C330.958 104.918 331.136 104.896 331.313 104.873C331.691 104.829 331.779 104.807 331.58 104.829C331.38 104.851 331.447 104.829 331.846 104.807C332.024 104.785 332.201 104.762 332.379 104.74C333.844 104.562 335.309 104.407 336.773 104.274C339.703 104.007 342.655 103.874 345.585 103.807C347.316 103.785 349.003 102.297 348.914 100.476C348.826 98.6547 347.45 97.1001 345.585 97.1445C339.282 97.2555 333 97.8552 326.785 98.8768C325.054 99.1655 323.944 101.387 324.455 102.986C325.054 104.851 326.697 105.606 328.561 105.318L328.517 105.295Z" fill="white"/>
<path d="M331.646 95.0343C332.268 98.0104 332.8 101.031 333.222 104.029C333.244 104.185 333.355 104.984 333.333 104.829C333.311 104.629 333.333 104.718 333.377 105.095C333.4 105.34 333.444 105.562 333.466 105.806C333.555 106.517 333.644 107.227 333.71 107.938C333.777 108.649 333.866 109.359 333.932 110.07C333.955 110.426 333.999 110.781 334.021 111.136C334.021 111.381 334.066 111.603 334.088 111.847C334.088 112.224 334.11 112.113 334.132 111.558L334.998 110.092L334.887 110.248L336.352 109.382L336.174 109.426H337.95L337.772 109.359L339.237 110.226L339.126 110.092L339.992 113.335L340.036 113.18C340.436 111.492 339.503 109.493 337.706 109.071C335.908 108.649 334.043 109.582 333.599 111.403C333.133 113.335 334.177 115.356 336.174 115.867C338.172 116.378 340.192 115.112 340.635 113.157C340.88 112.025 340.68 110.87 340.569 109.715C340.458 108.649 340.347 107.583 340.236 106.517C339.703 102.075 339.015 97.6328 338.083 93.2575C337.728 91.5474 335.619 90.3925 333.977 90.9255C332.179 91.503 331.269 93.1909 331.646 95.0343Z" fill="white"/>
<path d="M367.492 76.5784C365.805 82.3751 364.118 88.194 362.454 93.9907C361.832 96.1672 363.541 98.0772 365.672 98.2105C370.799 98.4992 375.949 98.3659 381.054 97.7663C382.785 97.5664 384.472 96.3671 384.383 94.4349C384.316 92.7913 382.896 90.8813 381.054 91.1034C375.949 91.6809 370.799 91.8363 365.672 91.5476L368.89 95.7674C370.577 89.9707 372.264 84.1518 373.929 78.3551C374.417 76.6894 373.33 74.6461 371.598 74.2464C369.867 73.8466 368.025 74.7794 367.492 76.5784Z" fill="white"/>
<path d="M379.056 89.9708C378.257 97.3 378.501 104.629 379.567 111.892C379.811 113.624 382.097 114.734 383.673 114.224C385.559 113.602 386.27 111.98 386.003 110.115C385.071 103.763 385.004 96.6115 385.737 89.9486C385.937 88.2163 384.072 86.5505 382.408 86.6172C380.432 86.706 379.278 88.083 379.078 89.9486L379.056 89.9708Z" fill="white"/>
<path d="M406.046 101.12C408.598 100.72 411.262 100.409 414.303 100.276C417.343 100.142 420.207 100.142 423.136 100.276C424.868 100.364 426.532 98.6765 426.466 96.9442C426.377 95.0564 425.001 93.7016 423.136 93.6127C416.811 93.2796 410.529 93.6794 404.292 94.6788C402.561 94.9453 401.451 97.1885 401.962 98.7876C402.561 100.653 404.204 101.408 406.068 101.12H406.046Z" fill="white"/>
<path d="M409.531 113.002C410.729 112.669 411.928 112.38 413.171 112.158C413.459 112.113 413.748 112.069 414.014 112.024C414.414 111.958 414.391 111.958 413.992 112.024C414.125 112.024 414.28 111.98 414.414 111.98C415.035 111.913 415.657 111.847 416.278 111.802C417.521 111.714 418.764 111.713 420.007 111.758C420.584 111.78 421.161 111.825 421.716 111.869C422.004 111.891 422.293 111.936 422.582 111.958C422.981 112.002 422.959 112.002 422.559 111.958C422.759 111.98 422.937 112.002 423.136 112.047C424.046 112.18 424.868 112.202 425.711 111.713C426.399 111.314 427.065 110.514 427.243 109.715C427.598 108.116 426.754 105.895 424.912 105.606C419.186 104.717 413.393 104.962 407.799 106.583C406.135 107.072 404.914 108.96 405.469 110.692C406.024 112.424 407.777 113.535 409.575 113.024L409.531 113.002Z" fill="white"/>
<path d="M464.398 77.5332C452.967 76.8891 443.645 87.5275 442.713 98.3213C441.781 109.115 449.838 118.865 460.425 119.354C466.285 119.62 471.7 116.911 475.207 112.313C476.295 110.87 475.429 108.582 474.009 107.76C472.3 106.761 470.546 107.516 469.459 108.96C467.084 112.091 462.445 113.357 458.716 112.469C454.632 111.514 451.369 108.16 450.06 104.229C447.041 95.1898 454.477 83.663 464.398 84.2183C468.682 84.4626 468.66 77.7997 464.398 77.5554V77.5332Z" fill="white"/>
<path d="M217.317 317.729C223.221 326.014 229.946 333.587 237.515 340.361C239.002 341.693 241.754 341.716 242.753 339.695C253.54 317.552 240.689 294.743 239.912 272.067L237.47 275.287C277.977 268.113 318.551 261.473 359.258 255.587C371.709 253.788 384.183 252.034 396.635 250.301C400.852 249.724 399.054 243.283 394.859 243.883C354.13 249.546 313.446 255.543 272.895 262.405C260.487 264.515 248.08 266.67 235.695 268.868C234.319 269.113 233.209 270.734 233.253 272.089C233.631 283.482 236.916 294.387 239.024 305.492C240.955 315.664 241.665 326.769 237.004 336.341L242.242 335.675C235.096 329.278 228.659 322.194 223.066 314.376C220.602 310.911 214.809 314.242 217.317 317.729Z" fill="white"/>
<path d="M275.38 324.814C275.958 318.174 276.535 311.533 277.112 304.892C277.312 302.56 277.445 300.228 278.088 297.985C278.355 297.052 278.71 296.053 279.309 295.276C279.442 295.098 280.241 294.476 280.308 294.298C278.865 294.01 278.532 294.076 279.287 294.476C279.464 294.587 279.642 294.72 279.82 294.876C283.46 297.785 285.369 302.427 286.922 306.691C289.164 312.799 291.273 318.951 293.425 325.081C294.025 326.769 295.689 327.901 297.532 327.413C299.174 326.969 300.462 325.014 299.862 323.304C297.842 317.574 295.823 311.822 293.781 306.114C292.183 301.65 290.451 297.163 287.521 293.366C286.079 291.5 284.348 289.679 282.306 288.502C279.531 286.903 276.535 288.346 274.626 290.589C271.363 294.387 270.964 299.473 270.542 304.27C269.943 311.133 269.343 317.996 268.744 324.859C268.589 326.658 270.386 328.19 272.073 328.19C274.004 328.19 275.247 326.658 275.403 324.859L275.38 324.814Z" fill="white"/>
<path d="M274.892 316.708C280.53 316.042 286.19 315.575 291.85 315.309C293.581 315.22 295.268 313.843 295.179 311.977C295.112 310.245 293.714 308.557 291.85 308.646C286.19 308.912 280.53 309.401 274.892 310.045C273.161 310.245 271.474 311.422 271.563 313.377C271.629 314.998 273.05 316.93 274.892 316.708Z" fill="white"/>
<path d="M309.917 309.001C316.465 308.468 322.968 307.513 329.382 306.136C331.091 305.781 332.246 303.671 331.713 302.027C331.136 300.228 329.449 299.318 327.607 299.695C321.414 301.028 316.065 301.805 309.917 302.316C308.186 302.449 306.499 303.737 306.587 305.647C306.654 307.335 308.052 309.134 309.917 308.979V309.001Z" fill="white"/>
<path d="M312.802 298.007C315.133 303.693 316.797 309.601 317.796 315.664C318.085 317.396 320.304 318.507 321.902 317.996C323.767 317.396 324.521 315.753 324.233 313.887C323.234 307.824 321.569 301.916 319.239 296.23C318.573 294.631 316.997 293.299 315.133 293.898C313.579 294.409 312.092 296.275 312.802 298.007Z" fill="white"/>
<path d="M347.716 278.619C348.315 278.219 348.914 277.863 349.58 277.575C348.803 277.908 349.869 277.486 350.024 277.441C350.357 277.33 350.712 277.242 351.045 277.175C351.223 277.131 351.4 277.108 351.578 277.086C351.134 277.131 351.112 277.153 351.489 277.086C351.844 277.064 352.199 277.02 352.555 277.02C352.91 277.02 353.265 277.02 353.62 277.042C353.797 277.042 354.929 277.242 354.064 277.064C354.774 277.197 355.462 277.353 356.15 277.575C356.306 277.619 357.349 278.086 356.594 277.73C356.905 277.886 357.238 278.041 357.549 278.219C357.859 278.397 358.17 278.574 358.459 278.774C358.614 278.885 358.747 278.974 358.88 279.085C358.547 278.841 358.547 278.818 358.836 279.085C359.102 279.329 359.369 279.551 359.613 279.818C359.724 279.929 360.434 280.817 359.946 280.173C360.19 280.506 360.434 280.862 360.634 281.239C360.7 281.35 361.189 282.439 361.011 281.95C361.166 282.372 361.277 282.794 361.366 283.238C361.255 282.639 361.366 283.816 361.366 283.971C361.366 284.193 361.366 284.393 361.322 284.615C361.366 284.26 361.344 284.282 361.277 284.682C361.144 285.104 361.055 285.504 360.9 285.926C361.1 285.393 360.612 286.503 360.545 286.614C360.323 286.992 360.101 287.369 359.835 287.725C360.145 287.303 359.391 288.235 359.302 288.324C358.991 288.657 358.658 288.968 358.325 289.257C358.148 289.412 357.97 289.568 357.793 289.701C358.015 289.546 357.948 289.59 357.637 289.812C357.26 290.079 356.883 290.345 356.483 290.59C354.907 291.589 353.22 292.433 351.534 293.255C349.958 294.032 349.425 296.386 350.335 297.808C351.378 299.407 353.22 299.829 354.885 299.007C358.103 297.43 361.388 295.742 363.896 293.121C366.405 290.501 368.291 286.725 367.958 282.972C367.292 275.754 360.789 271.023 353.975 270.379C350.646 270.068 347.072 270.934 344.298 272.822C342.855 273.799 342.078 275.798 343.099 277.375C344.031 278.796 346.118 279.618 347.649 278.574L347.716 278.619Z" fill="white"/>
<path d="M356.217 298.563C361.166 295.831 367.492 296.253 371.177 300.895C372.619 302.716 373.307 304.826 372.264 307.002C371.487 308.624 370.244 310.023 368.757 311.022C364.274 314.021 358.747 314.665 353.531 314.176L356.749 316.619C353.287 302.871 350.49 288.946 348.382 274.91C348.115 273.133 345.874 272.156 344.276 272.578C342.367 273.111 341.679 274.887 341.945 276.686C344.054 290.723 346.85 304.626 350.313 318.396C350.69 319.928 352.066 320.706 353.531 320.839C359.058 321.372 365.095 320.373 370.089 317.929C374.129 315.953 377.436 312.51 378.923 308.246C380.943 302.494 377.214 296.631 372.708 293.321C366.893 289.057 358.991 289.435 352.865 292.81C349.114 294.876 352.466 300.65 356.217 298.563Z" fill="white"/>
<path d="M601.7 70.7592C598.948 102.163 596.462 133.612 594.264 165.061C591.912 198.753 589.87 232.467 588.449 266.225C587.739 283.216 587.184 300.206 586.984 317.196C586.94 321.483 593.598 321.483 593.643 317.196C594.042 285.681 595.507 254.166 597.283 222.695C599.192 188.958 601.522 155.267 604.164 121.597C605.495 104.651 606.894 87.7051 608.381 70.7592C608.758 66.495 602.099 66.5172 601.722 70.7592H601.7Z" fill="white"/>
<path d="M718.537 191.246C687.064 192.135 655.546 191.713 624.073 191.157C588.738 190.558 553.402 189.58 518.089 188.514C501.598 188.026 485.106 187.493 468.615 186.982C464.331 186.849 464.331 193.512 468.615 193.645C500.089 194.6 531.584 195.621 563.057 196.443C598.37 197.376 633.706 198.176 669.041 198.331C685.533 198.398 702.046 198.353 718.537 197.887C722.821 197.776 722.821 191.113 718.537 191.224V191.246Z" fill="white"/>
<path d="M590.513 88.7491C595.485 81.9752 601.256 75.801 607.559 70.2264H602.854L617.081 86.5948C618.258 87.9496 620.588 87.7941 621.787 86.5948C623.141 85.24 622.963 83.2412 621.787 81.8864L607.559 65.518C606.317 64.0965 604.119 64.3853 602.854 65.518C596.107 71.4701 590.092 78.133 584.765 85.3733C583.699 86.8169 584.52 89.0823 585.963 89.9263C587.65 90.9257 589.448 90.1928 590.513 88.7269V88.7491Z" fill="white"/>
<path d="M483.486 173.789C476.961 177.743 470.901 182.451 465.463 187.804C464.287 188.981 464.065 191.379 465.463 192.512C472.189 197.976 478.914 203.417 485.639 208.88C487.037 210.013 488.991 210.235 490.345 208.88C491.521 207.703 491.743 205.305 490.345 204.172C483.619 198.708 476.894 193.267 470.169 187.804V192.512C475.229 187.537 480.778 183.206 486.838 179.519C490.5 177.298 487.148 171.546 483.486 173.767V173.789Z" fill="white"/>
<path d="M531.406 206.46C532.094 191.624 539.508 177.698 545.545 164.462C546.655 162.019 547.631 158.243 550.028 156.71C552.692 155 555.355 159.664 556.532 161.53C560.017 167.06 561.348 173.567 562.081 179.986C563.679 194.067 563.501 208.348 566.453 222.251C569.028 234.333 574.466 249.657 586.385 255.476C599.325 261.784 611.377 250.435 618.147 240.241C624.916 230.046 627.713 217.609 628.823 205.46C630.199 190.38 629.378 174.811 634.682 160.375C636.525 155.356 640.276 149.892 646.135 149.603C651.995 149.315 655.591 154.245 657.566 159.02C659.386 163.44 660.363 168.326 661.361 172.968C662.693 179.187 663.803 185.45 664.78 191.735C666.466 202.706 668.131 213.967 667.954 225.071C667.887 229.358 674.546 229.358 674.612 225.071C674.768 214.633 673.258 204.083 671.771 193.756C670.195 182.918 668.442 171.924 665.379 161.374C663.892 156.311 661.761 151.18 657.832 147.493C653.26 143.185 646.646 141.652 640.72 143.984C627.491 149.204 625.072 167.46 623.851 179.653C622.43 194.022 623.163 208.681 618.924 222.628C617.059 228.78 614.262 234.71 610.245 239.752C606.516 244.438 600.213 251.19 593.643 250.679C586.651 250.124 581.968 243.528 578.994 237.909C575.487 231.335 573.467 224.094 572.202 216.787C569.716 202.484 570.382 187.804 567.852 173.501C566.52 165.95 563.657 158.31 558.152 152.757C552.004 146.561 544.613 150.514 541.461 157.421C534.381 172.901 525.569 189.025 524.77 206.393C524.57 210.68 531.229 210.68 531.429 206.393L531.406 206.46Z" fill="white"/>
<path d="M575.997 306.092C577.973 309.223 580.17 312.199 582.612 314.975C583.743 316.264 584.898 317.507 586.118 318.684C587.495 320.017 588.915 321.505 590.846 321.949C593.11 322.46 595.041 321.327 596.439 319.639C597.727 318.063 599.014 316.463 600.301 314.887C602.876 311.711 605.451 308.557 608.025 305.381C609.157 303.982 609.379 302.027 608.025 300.672C606.849 299.495 604.452 299.273 603.32 300.672C601.189 303.293 599.058 305.914 596.928 308.535L593.576 312.666L592.067 314.531C591.823 314.82 591.445 315.131 591.29 315.464L591.001 315.775C591.49 315.508 591.978 315.42 592.444 315.531C592.444 315.42 591.69 314.842 591.49 314.642C590.935 314.109 590.38 313.554 589.825 313.021C588.804 311.977 587.805 310.889 586.851 309.756C584.964 307.557 583.277 305.203 581.746 302.738C580.792 301.228 578.772 300.606 577.196 301.539C575.62 302.471 575.043 304.559 575.997 306.092Z" fill="white"/>
<path d="M708.438 180.83C712.056 185.627 715.652 190.402 719.27 195.199C719.714 195.777 720.135 196.354 720.579 196.932C720.735 197.132 720.89 197.332 721.023 197.554C721.112 196.266 720.957 196.088 720.601 196.976C719.691 197.909 719.092 199.664 718.448 200.818C716.895 203.55 715.363 206.304 713.81 209.036C711.701 212.767 717.45 216.143 719.558 212.39C721.245 209.369 722.954 206.349 724.641 203.35C726.328 200.352 728.836 197.154 726.505 193.8C722.599 188.226 718.271 182.895 714.187 177.454C713.099 176.01 711.324 175.278 709.637 176.255C708.216 177.076 707.351 179.364 708.438 180.808V180.83Z" fill="white"/>
<path d="M467.616 289.679C465.308 309.268 464.509 328.99 465.219 348.712C465.286 350.644 466.706 351.866 468.549 352.043C494.495 354.398 520.575 354.82 546.566 353.287C550.828 353.043 550.85 346.38 546.566 346.624C520.553 348.135 494.473 347.735 468.549 345.381L471.878 348.712C471.168 329.012 471.967 309.268 474.275 289.679C474.786 285.437 468.105 285.459 467.616 289.679Z" fill="white"/>
<path d="M466.773 326.991C474.852 337.118 485.417 345.647 496.293 352.621C499.911 354.953 503.262 349.178 499.645 346.868C489.235 340.183 479.225 331.988 471.478 322.282C470.346 320.883 467.949 321.105 466.773 322.282C465.375 323.682 465.641 325.592 466.773 326.991Z" fill="white"/>
<path d="M282.439 175.633C289.12 174.745 295.823 174.123 302.548 173.745L299.33 169.525C294.646 181.496 290.718 193.734 287.544 206.193C286.478 210.347 292.915 212.123 293.958 207.97C297.11 195.511 301.061 183.273 305.744 171.302C306.521 169.326 304.545 166.971 302.526 167.082C295.8 167.46 289.097 168.082 282.416 168.97C280.641 169.215 279.087 170.325 279.087 172.302C279.087 173.923 280.619 175.877 282.416 175.633H282.439Z" fill="white"/>
<path d="M288.121 190.113C294.691 190.18 301.283 189.847 307.808 189.114C309.539 188.914 311.226 187.715 311.138 185.783C311.071 184.139 309.673 182.251 307.808 182.451C301.261 183.184 294.691 183.517 288.121 183.451C286.389 183.451 284.703 185.005 284.791 186.782C284.88 188.559 286.256 190.091 288.121 190.113Z" fill="white"/>
<path d="M332.246 183.162C339.992 189.159 347.76 195.177 355.507 201.174C356.927 202.284 358.836 202.551 360.212 201.174C361.366 200.019 361.632 197.576 360.212 196.465C352.466 190.469 344.697 184.45 336.951 178.454C335.53 177.343 333.622 177.077 332.246 178.454C331.091 179.608 330.825 182.051 332.246 183.162Z" fill="white"/>
<path d="M330.692 203.373C341.079 195.444 350.868 186.827 359.923 177.41C362.898 174.323 358.192 169.614 355.218 172.701C346.562 181.674 337.24 190.047 327.318 197.621C325.898 198.709 325.143 200.486 326.12 202.173C326.941 203.573 329.227 204.461 330.67 203.373H330.692Z" fill="white"/>
<path d="M73.423 321.972C73.423 321.972 48.3641 307.158 26.7235 325.392C5.08278 343.626 -1.75346 426.801 65.4325 416.54C80.237 394.886 74.5327 386.913 74.5327 386.913C74.5327 386.913 47.21 401.726 38.0876 384.625C28.9874 367.524 33.5375 333.343 66.5645 341.316" fill="#FFA447"/>
<mask id="mask2_81_165" style="mask-type:luminance" maskUnits="userSpaceOnUse" x="11" y="316" width="65" height="102">
<path d="M73.423 321.972C73.423 321.972 48.3641 307.158 26.7235 325.392C5.08278 343.626 -1.75346 426.801 65.4325 416.54C80.237 394.886 74.5327 386.913 74.5327 386.913C74.5327 386.913 47.21 401.726 38.0876 384.625C28.9874 367.524 33.5375 333.343 66.5645 341.316" fill="white"/>
</mask>
<g mask="url(#mask2_81_165)">
<g style="mix-blend-mode:multiply" opacity="0.2">
<path d="M81.369 335.786C75.7757 331.411 68.207 330.145 61.171 330.989C46.6551 332.699 33.8704 342.76 26.79 355.553C19.6875 368.346 17.8008 383.559 19.177 398.129C20.1536 408.567 22.817 419.05 28.5213 427.845C34.2256 436.64 43.2592 443.591 53.6023 445.235C68.9394 447.656 84.2544 437.884 92.4889 424.713C100.724 411.543 103.098 395.574 104.053 380.072C104.852 367.035 104.452 352.91 96.5507 342.516C93.5321 338.54 89.4703 335.164 87.9389 330.412" fill="#CE2873"/>
</g>
</g>
<path d="M63.1686 285.504V456.429C63.1686 456.429 128.068 492.897 189.572 451.876C188.44 430.221 187.286 287.791 187.286 287.791C187.286 287.791 139.455 251.323 63.1686 285.504Z" fill="#FFA447"/>
<mask id="mask3_81_165" style="mask-type:luminance" maskUnits="userSpaceOnUse" x="63" y="270" width="127" height="202">
<path d="M63.1686 285.504V456.429C63.1686 456.429 128.068 492.897 189.572 451.876C188.44 430.221 187.286 287.791 187.286 287.791C187.286 287.791 139.455 251.323 63.1686 285.504Z" fill="white"/>
</mask>
<g mask="url(#mask3_81_165)">
<g style="mix-blend-mode:multiply" opacity="0.2">
<path d="M54.8675 295.01C56.6653 323.682 58.4631 352.488 64.2118 380.65C66.4092 391.421 69.2724 402.326 75.4206 411.41C85.4308 426.202 102.677 434.264 119.679 439.683C131.265 443.37 143.295 446.19 155.436 445.968C176.366 445.568 196.964 436.218 217.628 439.572C223.177 440.482 229.413 443.147 230.701 448.611C231.788 453.231 228.814 457.828 225.463 461.182C216.052 470.576 202.956 475.218 190.061 478.394C167.532 483.946 144.138 485.99 121.01 484.368C111.488 483.702 101.9 482.414 92.9551 479.083C68.4955 469.999 51.4715 446.368 44.8795 421.116C38.2874 395.863 40.7955 369.101 45.9004 343.493" fill="#CE2873"/>
</g>
</g>
<path d="M72.2466 289.369C72.2466 289.369 83.2112 306.936 130.932 305.826C178.652 304.738 180.295 289.902 180.295 289.902C180.295 289.902 161.65 277.287 126.537 277.287C91.4236 277.287 72.2466 289.369 72.2466 289.369Z" fill="#842873"/>
<mask id="mask4_81_165" style="mask-type:luminance" maskUnits="userSpaceOnUse" x="72" y="277" width="109" height="29">
<path d="M72.2466 289.369C72.2466 289.369 83.2112 306.936 130.932 305.826C178.652 304.738 180.295 289.902 180.295 289.902C180.295 289.902 161.65 277.287 126.537 277.287C91.4236 277.287 72.2466 289.369 72.2466 289.369Z" fill="white"/>
</mask>
<g mask="url(#mask4_81_165)">
<path d="M82.3678 316.487C77.9065 317.797 74.1998 311.689 75.8423 307.336C77.4847 303.005 82.057 300.584 86.363 298.852C96.0402 294.943 106.272 292.456 116.638 291.168C132.463 289.213 149.065 290.168 163.47 297.031C167.088 298.763 170.662 300.94 172.904 304.271C175.145 307.603 175.745 312.289 173.414 315.576C171.527 318.241 168.242 319.44 165.157 320.462C149.176 325.77 132.974 330.345 116.593 334.21" fill="#5B2831"/>
<path d="M161.939 308.846C160.208 306.048 157.478 304.182 154.681 302.739C143.583 296.942 130.799 296.142 118.591 297.786C110.601 298.874 102.721 300.962 95.2634 304.271C91.9563 305.737 88.4272 307.758 87.162 311.423C85.8969 315.087 88.7601 320.24 92.1782 319.129L118.547 334.076C131.176 330.834 143.65 326.969 155.968 322.505C158.343 321.639 160.874 320.617 162.338 318.396C164.114 315.642 163.67 311.667 161.939 308.868V308.846ZM156.945 317.863C155.702 319.684 153.549 320.506 151.507 321.217C140.986 324.859 130.31 328.013 119.523 330.656L96.9947 318.485C94.0648 319.374 91.6233 315.176 92.7109 312.2C93.7985 309.224 96.7949 307.558 99.6359 306.381C106.006 303.694 112.754 301.983 119.568 301.095C129.999 299.74 140.92 300.407 150.419 305.115C152.794 306.292 155.147 307.802 156.634 310.09C158.099 312.378 158.499 315.598 156.967 317.863H156.945Z" fill="#782831"/>
</g>
<path d="M150.686 405.236C165.555 405.236 177.609 391.524 177.609 374.609C177.609 357.694 165.555 343.982 150.686 343.982C135.816 343.982 123.763 357.694 123.763 374.609C123.763 391.524 135.816 405.236 150.686 405.236Z" fill="#FFD46A"/>
<path d="M140.52 373.01C142.96 373.01 144.937 370.683 144.937 367.813C144.937 364.943 142.96 362.616 140.52 362.616C138.081 362.616 136.103 364.943 136.103 367.813C136.103 370.683 138.081 373.01 140.52 373.01Z" fill="#492C50"/>
<path d="M163.892 371.61C166.332 371.61 168.309 369.284 168.309 366.413C168.309 363.543 166.332 361.216 163.892 361.216C161.453 361.216 159.475 363.543 159.475 366.413C159.475 369.284 161.453 371.61 163.892 371.61Z" fill="#492C50"/>
<path d="M138.922 377.851C138.922 377.851 143.761 384.759 154.015 384.181C164.269 383.626 167.244 375.986 167.244 375.986" stroke="#492C50" stroke-miterlimit="10" stroke-linecap="round"/>
<g style="mix-blend-mode:soft-light">
<path d="M92.3114 263.539C87.5172 242.129 96.8171 218.986 90.0474 198.132C86.9845 188.648 80.6143 180.297 72.291 174.812C64.9221 169.948 56.2436 167.394 48.6749 162.841C36.1788 155.334 27.234 142.586 23.0612 128.594C18.8884 114.624 19.2436 99.5212 22.6395 85.3293C26.3017 70.0047 34.3365 54.6579 48.3198 47.3954C56.066 43.3755 67.1638 42.9979 72.0024 50.2382C74.9544 54.6357 74.6215 60.4991 73.1566 65.6072C68.2736 82.5753 52.5147 95.79 51.4049 113.424C50.5615 126.595 58.4409 138.943 68.2292 147.805C78.0174 156.666 89.8033 162.974 100.302 170.992C110.8 179.009 120.367 189.514 122.808 202.485C126.248 220.741 114.951 238.264 111.799 256.587C110.756 262.673 110.645 269.158 113.22 274.777C115.284 279.263 141.031 304.493 122.808 298.585C107.338 293.588 95.7517 278.997 92.2892 263.494L92.3114 263.539Z" fill="white"/>
</g>
<g style="mix-blend-mode:soft-light">
<path d="M118.502 270.246C117.126 262.339 119.634 254.233 123.407 247.17C127.181 240.108 132.219 233.8 136.481 227.004C143.96 215.077 149.088 201.441 149.798 187.382C150.508 173.324 146.646 158.798 137.857 147.805C132.086 140.587 124.14 134.612 121.365 125.795C118.413 116.423 122.164 106.228 127.269 97.8111C133.462 87.5947 142.007 78.4665 152.861 73.4472C163.715 68.4278 177.054 68.0503 187.286 74.2023C198.229 80.7763 204.133 93.88 204.488 106.65C204.843 119.421 200.337 131.881 194.322 143.141C188.662 153.712 181.427 164.329 181.649 176.322C181.826 185.761 186.709 194.889 185.511 204.261C183.89 216.943 172.127 225.36 162.094 233.289C153.749 239.908 145.98 247.237 138.9 255.166C135.748 258.697 132.485 263.006 131.265 267.692C129.667 273.911 133.839 275.909 134.172 281.084C134.971 293.144 119.545 276.354 118.48 270.246H118.502Z" fill="white"/>
</g>
<path d="M761.597 255.498L778.843 431.065C778.843 431.065 834.487 471.242 899.764 434.774C899.764 434.774 919.363 257.941 918.941 256.831C911.15 236.132 792.338 222.495 761.597 255.498Z" fill="#629CC3"/>
<mask id="mask5_81_165" style="mask-type:luminance" maskUnits="userSpaceOnUse" x="761" y="235" width="158" height="216">
<path d="M761.597 255.498L778.843 431.065C778.843 431.065 834.487 471.242 899.764 434.774C899.764 434.774 919.363 257.941 918.941 256.831C911.15 236.132 792.338 222.495 761.597 255.498Z" fill="white"/>
</mask>
<g mask="url(#mask5_81_165)">
<g style="mix-blend-mode:multiply" opacity="0.2">
<path d="M774.648 353.376C785.251 353.376 793.847 341.762 793.847 327.435C793.847 313.108 785.251 301.494 774.648 301.494C764.044 301.494 755.449 313.108 755.449 327.435C755.449 341.762 764.044 353.376 774.648 353.376Z" fill="#452873"/>
</g>
<g style="mix-blend-mode:multiply" opacity="0.2">
<path d="M864.895 340.583C875.498 340.583 884.094 328.969 884.094 314.642C884.094 300.316 875.498 288.702 864.895 288.702C854.292 288.702 845.696 300.316 845.696 314.642C845.696 328.969 854.292 340.583 864.895 340.583Z" fill="#452873"/>
</g>
<g style="mix-blend-mode:multiply" opacity="0.2">
<path d="M914.724 393.131C925.327 393.131 933.923 381.517 933.923 367.19C933.923 352.864 925.327 341.25 914.724 341.25C904.121 341.25 895.525 352.864 895.525 367.19C895.525 381.517 904.121 393.131 914.724 393.131Z" fill="#452873"/>
</g>
<g style="mix-blend-mode:multiply" opacity="0.2">
<path d="M843.343 423.247C858.347 423.247 870.51 410.221 870.51 394.153C870.51 378.084 858.347 365.058 843.343 365.058C828.339 365.058 816.176 378.084 816.176 394.153C816.176 410.221 828.339 423.247 843.343 423.247Z" fill="#452873"/>
</g>
</g>
<g style="mix-blend-mode:multiply" opacity="0.2">
<path d="M771.696 258.542C771.696 258.542 844.076 289.413 910.041 257.72C881.963 234.533 776.002 241.374 771.696 258.542Z" fill="#452873"/>
</g>
<path d="M800.395 267.292L854.019 42.7979L902.406 50.7711L844.608 272.422C844.608 272.422 826.741 274.91 800.372 267.292H800.395Z" fill="#E6E1FF"/>
<mask id="mask6_81_165" style="mask-type:luminance" maskUnits="userSpaceOnUse" x="800" y="42" width="103" height="231">
<path d="M800.395 267.292L854.019 42.7979L902.406 50.7711L844.608 272.422C844.608 272.422 826.741 274.91 800.372 267.292H800.395Z" fill="white"/>
</mask>
<g mask="url(#mask6_81_165)">
<g style="mix-blend-mode:multiply" opacity="0.2">
<path d="M911.151 61.7868L864.851 53.436L863.319 58.7663L911.151 68.6274" fill="#452873"/>
</g>
<g style="mix-blend-mode:multiply" opacity="0.2">
<path d="M918.386 75.3791L872.086 67.0283L870.555 72.3364L918.386 82.2197" fill="#452873"/>
</g>
<g style="mix-blend-mode:multiply" opacity="0.2">
<path d="M915.678 88.0383L869.378 79.6875L867.847 85.0178L915.678 94.8788" fill="#452873"/>
</g>
<g style="mix-blend-mode:multiply" opacity="0.2">
<path d="M912.97 100.72L866.648 92.3691L865.139 97.6772L912.97 107.56" fill="#452873"/>
</g>
<g style="mix-blend-mode:multiply" opacity="0.2">
<path d="M898.499 113.846L852.177 105.495L850.668 110.803L898.499 120.686" fill="#452873"/>
</g>
<g style="mix-blend-mode:multiply" opacity="0.2">
<path d="M905.735 127.416L859.413 119.065L857.903 124.396L905.735 134.257" fill="#452873"/>
</g>
<g style="mix-blend-mode:multiply" opacity="0.2">
<path d="M903.005 140.098L856.705 131.747L855.195 137.055L903.005 146.938" fill="#452873"/>
</g>
<g style="mix-blend-mode:multiply" opacity="0.2">
<path d="M900.297 152.779L853.997 144.406L852.465 149.737L900.297 159.598" fill="#452873"/>
</g>
<g style="mix-blend-mode:multiply" opacity="0.2">
<path d="M885.825 165.883L839.525 157.532L837.994 162.863L885.825 172.724" fill="#452873"/>
</g>
<g style="mix-blend-mode:multiply" opacity="0.2">
<path d="M893.061 179.475L846.761 171.125L845.23 176.433L893.061 186.316" fill="#452873"/>
</g>
<g style="mix-blend-mode:multiply" opacity="0.2">
<path d="M890.353 192.134L844.031 183.784L842.522 189.114L890.353 198.975" fill="#452873"/>
</g>
<g style="mix-blend-mode:multiply" opacity="0.2">
<path d="M887.623 204.816L841.323 196.465L839.814 201.773L887.623 211.657" fill="#452873"/>
</g>
<g style="mix-blend-mode:multiply" opacity="0.2">
<path d="M873.152 217.942L826.852 209.591L825.342 214.899L873.152 224.783" fill="#452873"/>
</g>
<g style="mix-blend-mode:multiply" opacity="0.2">
<path d="M880.387 231.512L834.087 223.162L832.578 228.492L880.387 238.353" fill="#452873"/>
</g>
<g style="mix-blend-mode:multiply" opacity="0.2">
<path d="M877.68 244.194L831.38 235.843L829.848 241.151L877.68 251.035" fill="#452873"/>
</g>
<g style="mix-blend-mode:multiply" opacity="0.2">
<path d="M874.972 256.875L828.65 248.502L827.14 253.833L874.972 263.694" fill="#452873"/>
</g>
<g style="mix-blend-mode:multiply" opacity="0.2">
<path d="M860.5 270.001L814.178 261.628L812.669 266.959L860.5 276.82" fill="#452873"/>
</g>
</g>
<path d="M837.35 271.867L821.236 189.403L835.575 186.982L851.799 271.734C851.799 271.734 844.098 273.2 837.328 271.867H837.35Z" fill="#FFA447"/>
<mask id="mask7_81_165" style="mask-type:luminance" maskUnits="userSpaceOnUse" x="821" y="186" width="31" height="87">
<path d="M837.35 271.867L821.236 189.403L835.575 186.982L851.799 271.734C851.799 271.734 844.098 273.2 837.328 271.867H837.35Z" fill="white"/>
</mask>
<g mask="url(#mask7_81_165)">
<g style="mix-blend-mode:multiply" opacity="0.2">
<path d="M834.842 171.302C825.875 173.679 817.885 179.609 812.979 187.493C811.071 190.58 809.584 194.178 810.227 197.754C810.804 200.952 813.046 203.662 815.71 205.505C821.17 209.303 828.161 209.947 834.798 210.302C839.059 210.547 843.543 210.658 847.338 208.748C848.004 197.931 844.941 186.916 838.793 178.01" fill="#452873"/>
</g>
</g>
<path d="M821.858 204.261C821.858 204.261 828.516 205.861 834.82 201.929C836.329 206.127 841.368 240.974 844.852 242.262C848.337 243.55 844.475 213.478 841.9 198.021C839.326 182.541 824.699 142.83 820.016 142.674C815.332 142.541 812.469 166.861 821.88 204.284L821.858 204.261Z" fill="#DE2D5C"/>
<mask id="mask8_81_165" style="mask-type:luminance" maskUnits="userSpaceOnUse" x="815" y="142" width="32" height="101">
<path d="M821.858 204.261C821.858 204.261 828.516 205.861 834.82 201.929C836.329 206.127 841.368 240.974 844.852 242.262C848.337 243.55 844.475 213.478 841.9 198.021C839.326 182.541 824.699 142.83 820.016 142.674C815.332 142.541 812.469 166.861 821.88 204.284L821.858 204.261Z" fill="white"/>
</mask>
<g mask="url(#mask8_81_165)">
<g style="mix-blend-mode:multiply" opacity="0.2">
<path d="M829.915 207.971L826.94 166.683L834.82 201.907L832.512 209.636L829.915 207.971Z" fill="#452873"/>
</g>
</g>
<path d="M873.329 269.468L886.913 203.106L872.597 200.53L858.725 271.312C858.725 271.312 866.626 271.178 873.329 269.446V269.468Z" fill="#FFA447"/>
<mask id="mask9_81_165" style="mask-type:luminance" maskUnits="userSpaceOnUse" x="858" y="200" width="29" height="72">
<path d="M873.329 269.468L886.913 203.106L872.597 200.53L858.725 271.312C858.725 271.312 866.626 271.178 873.329 269.446V269.468Z" fill="white"/>
</mask>
<g mask="url(#mask9_81_165)">
<g style="mix-blend-mode:multiply" opacity="0.2">
<path d="M873.507 184.872C882.452 187.337 890.375 193.334 895.214 201.285C897.101 204.372 898.543 208.014 897.878 211.568C897.278 214.766 895.014 217.431 892.329 219.275C886.824 223.028 879.833 223.583 873.196 223.894C868.935 224.094 864.451 224.161 860.678 222.206C860.123 211.39 863.297 200.397 869.534 191.557" fill="#452873"/>
</g>
</g>
<path d="M886.158 217.964C886.158 217.964 879.477 219.497 873.218 215.499C871.665 219.674 866.271 254.477 862.786 255.721C859.302 256.964 863.452 226.959 866.182 211.501C868.912 196.044 885.071 153.757 889.754 153.668C894.437 153.579 895.924 180.652 886.136 217.964H886.158Z" fill="#3A2632"/>
<mask id="mask10_81_165" style="mask-type:luminance" maskUnits="userSpaceOnUse" x="861" y="153" width="33" height="103">
<path d="M886.158 217.964C886.158 217.964 879.477 219.497 873.218 215.499C871.665 219.674 866.271 254.477 862.786 255.721C859.302 256.964 863.452 226.959 866.182 211.501C868.912 196.044 885.071 153.757 889.754 153.668C894.437 153.579 895.924 180.652 886.136 217.964H886.158Z" fill="white"/>
</mask>
<g mask="url(#mask10_81_165)">
<g style="mix-blend-mode:multiply" opacity="0.2">
<path d="M878.057 221.607L881.453 180.341L873.218 215.499L875.46 223.228L878.057 221.607Z" fill="#452873"/>
</g>
</g>
<path d="M666.755 331.322L659.186 337.429L644.959 418.361C644.959 418.361 542.127 555.105 542.859 557.215C543.592 559.325 549.94 574.294 549.94 574.294L751.453 601.279L841.19 451.32C841.19 451.32 851.134 356.841 848.404 354.486C845.674 352.132 666.733 331.366 666.733 331.366L666.755 331.322Z" fill="#492C50"/>
<mask id="mask11_81_165" style="mask-type:luminance" maskUnits="userSpaceOnUse" x="542" y="331" width="307" height="271">
<path d="M666.755 331.322L659.186 337.429L644.959 418.361C644.959 418.361 542.127 555.105 542.859 557.215C543.592 559.325 549.94 574.294 549.94 574.294L751.453 601.279L841.19 451.32C841.19 451.32 851.134 356.841 848.404 354.486C845.674 352.132 666.733 331.366 666.733 331.366L666.755 331.322Z" fill="white"/>
</mask>
<g mask="url(#mask11_81_165)">
<g style="mix-blend-mode:multiply" opacity="0.2">
<path d="M532.605 550.863L542.882 557.215L744.417 583.4L829.071 443.702L837.528 361.127L654.148 337.896L662.849 316.819L895.081 328.124L882.03 423.203L797.554 621.112L531.051 586.309L532.605 550.863Z" fill="#452873"/>
</g>
<path d="M668.153 352.421L659.808 414.963L820.193 436.573L827.074 372.143L668.153 352.421Z" fill="#FFBC6B"/>
<path d="M673.68 358.373L666.666 410.721L814.644 430.554L820.304 376.607L673.68 358.373Z" fill="#2F223B"/>
<mask id="mask12_81_165" style="mask-type:luminance" maskUnits="userSpaceOnUse" x="666" y="358" width="155" height="73">
<path d="M673.68 358.373L666.666 410.721L814.644 430.554L820.304 376.607L673.68 358.373Z" fill="white"/>
</mask>
<g mask="url(#mask12_81_165)">
<g style="mix-blend-mode:soft-light" opacity="0.8">
<path d="M817.618 318.84C754.472 357.484 692.546 398.106 631.908 440.615C637.568 443.613 644.537 443.258 650.574 441.148C656.612 439.038 661.961 435.329 667.221 431.664C703.178 406.745 739.69 382.581 776.179 358.417C794.824 346.069 813.512 333.698 833.244 323.149C844.297 317.241 855.972 311.822 868.446 310.733C870.799 314.664 866.515 319.151 862.72 321.727L679.473 445.923C681.737 445.168 684.423 447.322 684.201 449.699C688.773 446.811 693.323 443.924 697.895 441.037C762.285 400.327 826.652 359.617 891.041 318.884" fill="#FFFFC9"/>
</g>
</g>
<path d="M652.128 431.22L646.335 438.572L672.681 441.925L676.765 435.174L652.128 431.22Z" fill="#FF5F56"/>
<path d="M685.732 436.04L679.917 443.369L706.285 446.722L710.369 439.971L685.732 436.04Z" fill="#FF5F56"/>
<path d="M719.336 440.837L713.521 448.166L739.889 451.542L743.973 444.79L719.336 440.837Z" fill="#FF5F56"/>
<path d="M752.918 445.656L747.125 452.985L773.494 456.339L777.555 449.587L752.918 445.656Z" fill="#FF5F56"/>
<path d="M786.522 450.454L780.729 457.783L807.075 461.136L811.159 454.407L786.522 450.454Z" fill="#FF5F56"/>
<path d="M642.318 445.212L636.525 452.542L662.893 455.895L666.955 449.166L642.318 445.212Z" fill="#FF5F56"/>
<path d="M675.922 450.032L670.129 457.361L696.475 460.715L700.559 453.963L675.922 450.032Z" fill="#FF5F56"/>
<path d="M709.526 454.829L703.711 462.158L730.079 465.512L734.163 458.76L709.526 454.829Z" fill="#FF5F56"/>
<path d="M743.108 459.626L737.315 466.978L763.683 470.331L767.767 463.58L743.108 459.626Z" fill="#FF5F56"/>
<path d="M776.712 464.446L770.919 471.775L797.287 475.129L801.349 468.377L776.712 464.446Z" fill="#FF5F56"/>
<path d="M630.621 461.292L620.677 474.818L647.045 478.193L655.28 465.223L630.621 461.292Z" fill="#FFBC6B"/>
<path d="M664.225 466.089L654.281 479.637L680.627 482.991L688.862 470.043L664.225 466.089Z" fill="#FFBC6B"/>
<path d="M697.829 470.909L687.863 484.434L714.231 487.788L722.466 474.84L697.829 470.909Z" fill="#FFBC6B"/>
<path d="M731.433 475.706L721.467 489.254L747.835 492.608L756.07 479.659L731.433 475.706Z" fill="#FFBC6B"/>
<path d="M765.015 480.525L755.071 494.051L781.44 497.405L789.652 484.456L765.015 480.525Z" fill="#FFBC6B"/>
<path d="M617.792 479.415L607.848 492.963L634.216 496.317L642.451 483.368L617.792 479.415Z" fill="#FFBC6B"/>
<path d="M651.396 484.234L641.452 497.76L667.798 501.114L676.033 488.165L651.396 484.234Z" fill="#FFFFC9"/>
<path d="M685 489.032L675.034 502.58L701.402 505.933L709.637 492.985L685 489.032Z" fill="#FFFFC9"/>
<path d="M718.604 493.851L708.638 507.377L735.006 510.73L743.241 497.782L718.604 493.851Z" fill="#FFFFC9"/>
<path d="M752.186 498.648L742.242 512.196L768.611 515.55L776.845 502.58L752.186 498.648Z" fill="#FFBC6B"/>
<path d="M604.963 497.56L595.019 511.086L621.387 514.439L629.622 501.491L604.963 497.56Z" fill="#FF5F56"/>
<path d="M638.567 502.357L628.623 515.905L654.969 519.259L663.204 506.311L638.567 502.357Z" fill="#FFFFC9"/>
<path d="M672.171 507.177L662.205 520.702L688.573 524.056L696.808 511.108L672.171 507.177Z" fill="#FFFFC9"/>
<path d="M705.775 511.974L695.809 525.522L722.177 528.876L730.412 515.905L705.775 511.974Z" fill="#FFFFC9"/>
<path d="M739.357 516.771L729.413 530.319L755.782 533.673L764.016 520.725L739.357 516.771Z" fill="#FFBC6B"/>
<path d="M592.156 515.683L582.19 529.231L608.558 532.585L616.793 519.636L592.156 515.683Z" fill="#FF5F56"/>
<path d="M625.738 520.502L615.794 534.028L642.14 537.382L650.375 524.434L625.738 520.502Z" fill="#FFFFC9"/>
<path d="M659.342 525.3L649.376 538.848L675.744 542.201L683.979 529.231L659.342 525.3Z" fill="#FFFFC9"/>
<path d="M692.946 530.097L682.98 543.645L709.348 546.999L717.583 534.05L692.946 530.097Z" fill="#FFFFC9"/>
<path d="M579.327 533.828L569.361 547.354L595.729 550.707L603.964 537.759L579.327 533.828Z" fill="#C5D7FF"/>
<path d="M612.909 538.625L602.965 552.173L629.333 555.527L637.546 542.557L612.909 538.625Z" fill="#C5D7FF"/>
<path d="M646.513 543.423L636.569 556.971L662.915 560.324L671.15 547.376L646.513 543.423Z" fill="#C5D7FF"/>
<path d="M680.117 548.242L670.151 561.768L696.519 565.121L704.754 552.173L680.117 548.242Z" fill="#C5D7FF"/>
<path d="M726.017 535.694L703.755 566.587L730.123 569.941L750.654 539.625L726.017 535.694Z" fill="#FFBC6B"/>
</g>
<path d="M110.245 609.497L109.979 618.958L478.514 627.553L496.471 598.658L495.894 589.752L110.245 609.497Z" fill="#FFB33E"/>
<path d="M146.668 580.624L495.894 589.752L474.63 620.135L110.245 609.496L146.668 580.624Z" fill="#FFD347"/>
<mask id="mask13_81_165" style="mask-type:luminance" maskUnits="userSpaceOnUse" x="110" y="580" width="386" height="41">
<path d="M146.668 580.624L495.894 589.752L474.63 620.135L110.245 609.496L146.668 580.624Z" fill="white"/>
</mask>
<g mask="url(#mask13_81_165)">
<path d="M172.06 569.564L144.915 599.947L151.352 600.413L176.211 572.318" fill="#FFEE96"/>
<path d="M195.077 565.411L167.91 595.793L174.368 596.26L199.205 568.165" fill="#FFEE96"/>
<path d="M211.635 566.788L184.49 597.193L190.926 597.637L215.785 569.564" fill="#FFEE96"/>
<path d="M226.217 570.896L200.493 602.501L206.952 602.656L230.479 573.473" fill="#FFEE96"/>
<path d="M249.012 565.699L223.287 597.303L229.746 597.459L253.274 568.276" fill="#FFEE96"/>
<path d="M265.637 566.321L239.89 597.925L246.349 598.081L269.898 568.898" fill="#FFEE96"/>
<path d="M280.53 570.896L254.783 602.501L261.242 602.656L284.791 573.473" fill="#FFEE96"/>
<path d="M303.325 565.699L277.578 597.303L284.037 597.459L307.586 568.276" fill="#FFEE96"/>
<path d="M319.927 566.321L294.202 597.925L300.661 598.081L324.211 568.898" fill="#FFEE96"/>
<path d="M334.82 570.896L309.096 602.501L315.554 602.656L339.104 573.473" fill="#FFEE96"/>
<path d="M357.637 565.699L331.89 597.303L338.349 597.459L361.899 568.276" fill="#FFEE96"/>
<path d="M374.24 566.321L348.515 597.925L354.974 598.081L378.501 568.898" fill="#FFEE96"/>
<path d="M387.291 573.206L361.566 604.788L368.025 604.966L391.552 575.76" fill="#FFEE96"/>
<path d="M410.085 568.009L384.361 599.613L390.82 599.769L414.347 570.563" fill="#FFEE96"/>
<path d="M426.71 568.631L400.963 600.235L407.422 600.39L430.971 571.185" fill="#FFEE96"/>
<path d="M441.603 575.494L415.856 607.098L422.315 607.276L445.865 578.07" fill="#FFEE96"/>
<path d="M464.398 570.297L438.651 601.901L445.11 602.079L468.66 572.873" fill="#FFEE96"/>
<path d="M481 570.918L455.276 602.523L461.735 602.7L485.262 573.495" fill="#FFEE96"/>
</g>
<path d="M285.058 452.12C279.62 456.406 273.716 472.753 280.929 476.884C288.143 481.015 335.575 487.211 342.788 485.145C350.002 483.08 363.408 467.6 361.344 457.295C359.28 446.967 299.485 440.793 285.036 452.142L285.058 452.12Z" fill="#D15A8C"/>
<mask id="mask14_81_165" style="mask-type:luminance" maskUnits="userSpaceOnUse" x="277" y="446" width="85" height="40">
<path d="M285.058 452.12C279.62 456.406 273.716 472.753 280.929 476.884C288.143 481.015 335.575 487.211 342.788 485.145C350.002 483.08 363.408 467.6 361.344 457.295C359.28 446.967 299.485 440.793 285.036 452.142L285.058 452.12Z" fill="white"/>
</mask>
<g mask="url(#mask14_81_165)">
<g style="mix-blend-mode:multiply" opacity="0.2">
<path d="M271.696 437.662C268.633 446.901 276.18 456.207 284.015 462.003C291.739 467.711 300.506 472.264 309.961 473.93C322.968 476.217 336.241 472.93 348.959 469.399C353.442 468.155 358.037 466.867 362.698 467.245C367.359 467.622 372.109 470.11 373.862 474.441C375.793 479.171 373.485 484.813 369.667 488.211C365.85 491.609 360.811 493.23 355.862 494.585C335.02 500.293 313.224 502.713 291.65 501.292C274.648 500.159 255.76 495.251 247.281 480.459C245.661 477.639 244.573 473.908 246.526 471.309" fill="#572873"/>
</g>
</g>
<path d="M803.435 554.794C799.129 560.213 797.487 576.626 805.144 579.847C825.365 588.331 862.12 582.712 868.668 579.047C875.216 575.36 884.005 550.486 867.336 542.779C857.792 538.359 814.844 540.425 803.413 554.817L803.435 554.794Z" fill="#AFD3F6"/>
<mask id="mask15_81_165" style="mask-type:luminance" maskUnits="userSpaceOnUse" x="799" y="540" width="78" height="45">
<path d="M803.435 554.794C799.129 560.213 797.487 576.626 805.144 579.847C825.365 588.331 862.12 582.712 868.668 579.047C875.216 575.36 884.005 550.486 867.336 542.779C857.792 538.359 814.844 540.425 803.413 554.817L803.435 554.794Z" fill="white"/>
</mask>
<g mask="url(#mask15_81_165)">
<g style="mix-blend-mode:multiply" opacity="0.2">
<path d="M785.413 554.55C785.967 564.278 796.399 570.163 805.81 572.651C815.088 575.116 824.921 576.138 834.332 574.205C847.494 571.496 858.813 563.323 868.934 555.66C872.641 552.84 876.459 549.953 880.92 548.62C885.381 547.287 890.731 547.82 893.949 551.196C897.478 554.905 897.411 560.968 895.103 565.544C892.795 570.097 888.711 573.472 884.605 576.537C867.314 589.508 847.938 599.791 827.362 606.387C811.137 611.584 791.761 613.96 778.443 603.322C775.913 601.301 773.516 598.214 774.381 595.082" fill="#572873"/>
</g>
</g>
<path d="M547.942 462.625L381.298 429.022C381.298 429.022 364.695 432.642 377.724 447.9C401.407 452.098 546.744 478.638 546.744 478.638L571.669 473.197L547.942 462.625Z" fill="#FFD46A"/>
<mask id="mask16_81_165" style="mask-type:luminance" maskUnits="userSpaceOnUse" x="372" y="429" width="200" height="50">
<path d="M547.942 462.625L381.298 429.022C381.298 429.022 364.695 432.642 377.724 447.9C401.407 452.098 546.744 478.638 546.744 478.638L571.669 473.197L547.942 462.625Z" fill="white"/>
</mask>
<g mask="url(#mask16_81_165)">
<path d="M574.954 454.719C577.263 454.386 578.639 457.162 579.26 459.427C580.747 464.758 582.257 470.199 582.012 475.729C581.768 481.259 579.482 487.012 574.843 490.032C572.402 491.631 569.45 492.364 566.542 492.431C558.507 492.608 550.739 487.545 547.077 480.371C543.414 473.197 543.747 464.291 547.343 457.073C550.939 449.855 557.553 444.369 565.055 441.482" fill="#FFECD0"/>
<path d="M404.692 425.957C400.097 434.819 399.454 445.613 402.961 454.963C403.982 457.717 405.38 460.582 404.714 463.447C403.782 467.4 399.321 469.421 395.303 469.977C384.339 471.487 372.819 465.957 366.782 456.651C360.745 447.345 360.323 434.819 365.317 424.936C370.311 415.052 380.432 408.056 391.397 406.435" fill="#FFECD0"/>
<path d="M397.19 426.179C392.595 435.041 391.952 445.835 395.459 455.185C396.48 457.939 397.878 460.804 397.212 463.669C396.28 467.622 391.818 469.644 387.801 470.199C376.836 471.709 365.317 466.179 359.28 456.873C353.243 447.567 352.821 435.041 357.815 425.158C362.809 415.275 372.93 408.279 383.895 406.657" fill="#FF5171"/>
<path d="M578.55 466.579C576.219 463.136 573.223 459.294 569.05 459.294C567.341 459.294 565.721 459.982 564.256 460.849C560.882 462.847 558.174 465.89 556.576 469.466C556.221 470.243 555.933 471.065 555.888 471.931C555.844 472.931 556.199 473.908 556.621 474.818C559.595 481.104 567.607 484.48 574.177 482.259" fill="#492C50"/>
<g style="mix-blend-mode:multiply" opacity="0.2">
<path d="M576.663 475.929L543.792 468.911L379.256 437.839C379.256 437.839 372.908 444.835 381.719 454.585C390.531 464.358 566.631 490.032 566.631 490.032L576.663 475.929Z" fill="#452873"/>
</g>
</g>
<path d="M229.524 519.437L60.8381 540.447C60.8381 540.447 46.2334 549.153 63.4128 559.481C87.2064 555.95 233.453 534.984 233.453 534.984L255.36 521.924L229.524 519.437Z" fill="#FFD46A"/>
<mask id="mask17_81_165" style="mask-type:luminance" maskUnits="userSpaceOnUse" x="55" y="519" width="201" height="41">
<path d="M229.524 519.437L60.8381 540.447C60.8381 540.447 46.2334 549.153 63.4128 559.481C87.2064 555.95 233.453 534.984 233.453 534.984L255.36 521.924L229.524 519.437Z" fill="white"/>
</mask>
<g mask="url(#mask17_81_165)">
<path d="M252.652 503.357C254.739 502.313 256.936 504.512 258.245 506.444C261.353 511.02 264.505 515.706 266.036 521.036C267.568 526.366 267.213 532.518 263.772 536.871C261.952 539.159 259.4 540.803 256.647 541.78C249.079 544.512 240.112 542.157 234.363 536.516C228.614 530.875 226.106 522.324 227.238 514.351C228.348 506.378 232.876 499.071 239.091 493.94" fill="#FFECD0"/>
<path d="M82.057 530.12C80.5034 539.981 83.3222 550.419 89.6035 558.17C91.4458 560.458 93.6875 562.723 93.9539 565.655C94.3312 569.697 90.7355 573.028 87.0954 574.85C77.174 579.758 64.5003 578.159 55.8219 571.274C47.1434 564.389 42.7709 552.618 44.3912 541.669C46.0114 530.719 53.3804 520.858 63.2574 515.839" fill="#FFECD0"/>
<path d="M75.021 532.718C73.4895 542.579 76.2862 553.018 82.5675 560.769C84.4098 563.057 86.6515 565.322 86.9179 568.254C87.2952 572.296 83.6995 575.627 80.0594 577.448C70.138 582.357 57.4643 580.758 48.7859 573.873C40.1074 566.988 35.7349 555.217 37.3552 544.267C38.9532 533.296 46.3444 523.457 56.2214 518.438" fill="#FF5171"/>
<path d="M259.821 513.463C256.514 510.931 252.452 508.243 248.502 509.576C246.881 510.109 245.55 511.286 244.44 512.574C241.887 515.528 240.267 519.282 239.868 523.19C239.779 524.034 239.757 524.923 240.001 525.745C240.289 526.7 240.911 527.521 241.599 528.254C246.415 533.274 255.072 533.94 260.62 529.72" fill="#492C50"/>
<g style="mix-blend-mode:multiply" opacity="0.2">
<path d="M260.976 522.924L227.593 526.699L61.7037 549.442C61.7037 549.442 57.9083 558.082 69.339 564.545C80.7697 571.008 255.937 539.492 255.937 539.492L260.976 522.924Z" fill="#452873"/>
</g>
</g>
</g>
<defs>
<clipPath id="clip0_81_165">
<rect width="981" height="662" fill="white"/>
</clipPath>
</defs>
</svg>
