<svg width="60" height="60" viewBox="0 0 60 60" fill="none" xmlns="http://www.w3.org/2000/svg">
<path d="M30.0117 16.5234C22.5586 16.5234 16.5469 22.5352 16.5469 29.9883C16.5469 37.4414 22.5586 43.4531 30.0117 43.4531C37.4648 43.4531 43.4766 37.4414 43.4766 29.9883C43.4766 22.5352 37.4648 16.5234 30.0117 16.5234ZM30.0117 38.7422C25.1953 38.7422 21.2578 34.8164 21.2578 29.9883C21.2578 25.1602 25.1836 21.2344 30.0117 21.2344C34.8398 21.2344 38.7656 25.1602 38.7656 29.9883C38.7656 34.8164 34.8281 38.7422 30.0117 38.7422ZM47.168 15.9727C47.168 17.7188 45.7617 19.1133 44.0273 19.1133C42.2813 19.1133 40.8867 17.707 40.8867 15.9727C40.8867 14.2383 42.293 12.832 44.0273 12.832C45.7617 12.832 47.168 14.2383 47.168 15.9727ZM56.0859 19.1602C55.8867 14.9531 54.9258 11.2266 51.8438 8.15625C48.7734 5.08594 45.0469 4.125 40.8398 3.91406C36.5039 3.66797 23.5078 3.66797 19.1719 3.91406C14.9766 4.11328 11.25 5.07422 8.16797 8.14453C5.08594 11.2148 4.13672 14.9414 3.92578 19.1484C3.67969 23.4844 3.67969 36.4805 3.92578 40.8164C4.125 45.0234 5.08594 48.75 8.16797 51.8203C11.25 54.8906 14.9648 55.8516 19.1719 56.0625C23.5078 56.3086 36.5039 56.3086 40.8398 56.0625C45.0469 55.8633 48.7734 54.9023 51.8438 51.8203C54.9141 48.75 55.875 45.0234 56.0859 40.8164C56.332 36.4805 56.332 23.4961 56.0859 19.1602ZM50.4844 45.4688C49.5703 47.7656 47.8008 49.5352 45.4922 50.4609C42.0352 51.832 33.832 51.5156 30.0117 51.5156C26.1914 51.5156 17.9766 51.8203 14.5312 50.4609C12.2344 49.5469 10.4648 47.7773 9.53906 45.4688C8.16797 42.0117 8.48438 33.8086 8.48438 29.9883C8.48438 26.168 8.17969 17.9531 9.53906 14.5078C10.4531 12.2109 12.2227 10.4414 14.5312 9.51562C17.9883 8.14453 26.1914 8.46094 30.0117 8.46094C33.832 8.46094 42.0469 8.15625 45.4922 9.51562C47.7891 10.4297 49.5586 12.1992 50.4844 14.5078C51.8555 17.9648 51.5391 26.168 51.5391 29.9883C51.5391 33.8086 51.8555 42.0234 50.4844 45.4688Z" fill="#3C2011"/>
</svg>
