<svg width="954" height="341" viewBox="0 0 954 341" fill="none" xmlns="http://www.w3.org/2000/svg">
<path d="M92.5052 0.777047L73.9566 19.0978C73.9566 19.0978 64.859 20.1393 59.2935 20.8525C53.728 21.5656 9.09963 46.7693 1.46564 116.138C-6.16834 185.507 21.1817 246.952 74.7597 294.24C110.593 325.868 190.947 360.955 198.542 326.761C205.504 295.452 178.41 276.892 136.773 213.033C96.0856 150.633 92.4009 122.214 88.4921 88.1566C84.5832 54.0994 81.8829 37.5201 85.1133 32.0709C88.3437 26.6216 106.478 17.1081 106.478 17.1081L92.5037 0.770691L92.5052 0.777047Z" fill="#FBD341"/>
<path d="M203.364 281.354L227.7 219.837L241.107 227.848L217.61 290.661L203.364 281.354Z" fill="black"/>
<path d="M198.029 252.271C193.392 252.271 189.294 249.312 187.831 244.91C186.926 242.187 187.135 239.272 188.421 236.706C189.707 234.139 191.916 232.227 194.64 231.322C195.74 230.956 196.881 230.771 198.031 230.771C202.667 230.771 206.765 233.729 208.228 238.131C210.097 243.755 207.043 249.851 201.419 251.72C200.32 252.085 199.179 252.271 198.029 252.271Z" fill="black"/>
<path d="M247.036 277.409C242.399 277.409 238.301 274.451 236.838 270.049C234.97 264.425 238.024 258.329 243.647 256.46C244.748 256.094 245.889 255.908 247.038 255.908C251.674 255.908 255.773 258.866 257.235 263.269C258.142 265.993 257.932 268.907 256.646 271.473C255.36 274.04 253.151 275.951 250.427 276.857C249.327 277.223 248.185 277.409 247.036 277.409Z" fill="black"/>
<path d="M114.332 56.9256L106.512 66.8959L97.2081 62.483L113.321 44.2165L139.425 64.9845L139.692 38.0694L204.906 17.758L208.15 26.0543L150.324 45.014L150.002 87.1193L114.332 56.9256Z" fill="black"/>
<path d="M74.5682 128.8H123.432V136.384H89.6402V156.64H102.408C110.728 156.64 117.224 158.4 121.896 161.92C126.568 165.376 128.904 170.176 128.904 176.32C128.904 182.464 126.568 187.296 121.896 190.816C117.224 194.272 110.728 196 102.408 196H74.5682V128.8ZM101.64 188.896C105.352 188.896 108.264 187.776 110.376 185.536C112.488 183.296 113.544 180.16 113.544 176.128C113.544 172.16 112.488 169.056 110.376 166.816C108.264 164.512 105.352 163.36 101.64 163.36H89.6402V188.896H101.64Z" fill="black"/>
<path d="M160.384 128.8H175.84L201.376 196H185.056L178.24 177.856H150.496L143.776 196H134.752L160.384 128.8ZM175.936 170.752L164.608 140.704H164.128L152.8 170.752H175.936Z" fill="black"/>
<path d="M212.568 128.8H227.928V158.176H256.824V128.8H272.184V196H256.824V166.624H227.928V196H212.568V128.8Z" fill="black"/>
<path d="M308.79 128.8H324.246L349.782 196H333.462L326.646 177.856H298.902L292.182 196H283.158L308.79 128.8ZM324.342 170.752L313.014 140.704H312.534L301.206 170.752H324.342Z" fill="black"/>
<path d="M360.974 128.8H376.334V158.176H405.23V128.8H420.59V196H405.23V166.624H376.334V196H360.974V128.8Z" fill="black"/>
<path d="M470.252 197.44C463.596 197.44 457.58 195.936 452.204 192.928C446.892 189.856 442.732 185.664 439.724 180.352C436.716 175.04 435.212 169.056 435.212 162.4C435.212 155.744 436.716 149.76 439.724 144.448C442.732 139.072 446.892 134.88 452.204 131.872C457.58 128.864 463.596 127.36 470.252 127.36C476.972 127.36 482.988 128.864 488.3 131.872C493.612 134.88 497.772 139.072 500.78 144.448C503.788 149.76 505.292 155.744 505.292 162.4C505.292 169.056 503.788 175.04 500.78 180.352C497.772 185.664 493.612 189.856 488.3 192.928C482.988 195.936 476.972 197.44 470.252 197.44ZM470.252 188.992C474.156 188.992 477.548 187.936 480.428 185.824C483.372 183.712 485.644 180.672 487.244 176.704C488.844 172.672 489.644 167.904 489.644 162.4C489.644 156.832 488.844 152.064 487.244 148.096C485.644 144.064 483.372 140.992 480.428 138.88C477.548 136.768 474.156 135.712 470.252 135.712C466.348 135.712 462.924 136.768 459.98 138.88C457.1 140.992 454.86 144.064 453.26 148.096C451.66 152.064 450.86 156.832 450.86 162.4C450.86 167.904 451.66 172.672 453.26 176.704C454.86 180.672 457.1 183.712 459.98 185.824C462.924 187.936 466.348 188.992 470.252 188.992Z" fill="black"/>
<path d="M519.974 128.8H540.134L558.758 176.704L577.286 128.8H596.87V196H581.702V139.168L559.814 196H550.214L528.518 139.648V196H519.974V128.8Z" fill="black"/>
<path d="M633.446 128.8H648.902L674.438 196H658.118L651.302 177.856H623.558L616.838 196H607.814L633.446 128.8ZM648.998 170.752L637.67 140.704H637.19L625.862 170.752H648.998Z" fill="black"/>
<path d="M694.321 137.152H671.569V128.8H732.529V137.152H709.681V196H694.321V137.152Z" fill="black"/>
<path d="M743.662 128.8H758.83V173.536L790.222 128.8H803.854V196H788.59V145.312L752.206 197.632H743.662V128.8Z" fill="black"/>
<path d="M822.974 128.8H838.238V158.176H845.822L869.342 128.8H878.942L857.822 156.352L884.03 196H865.886L846.206 166.624H838.238V196H822.974V128.8Z" fill="black"/>
<path d="M912.446 128.8H927.902L953.438 196H937.118L930.302 177.856H902.558L895.838 196H886.814L912.446 128.8ZM927.998 170.752L916.67 140.704H916.19L904.862 170.752H927.998Z" fill="black"/>
<path d="M222.28 102C218.293 102 215.043 100.616 212.53 97.849C210.103 95.0142 208.24 90.5258 206.94 84.3837L189 101.393H179.64L205.9 78.3091L203.82 66.9698C203.127 63.6625 202.39 61.4352 201.61 60.2878C200.917 59.1403 200.007 58.5666 198.88 58.5666C197.147 58.5666 195.197 59.5116 193.03 61.4014C190.863 63.2238 188.74 66.0249 186.66 69.8046C184.667 73.5169 182.933 78.0053 181.46 83.27H176C178.513 74.0906 182.24 66.2949 187.18 59.8828C192.207 53.4707 198.707 50.2647 206.68 50.2647C211.273 50.2647 214.567 51.4121 216.56 53.7069C218.64 56.0018 220.027 58.8703 220.72 62.3126L222.28 69.7034C225.833 66.4636 228.477 63.73 230.21 61.5027C232.03 59.2753 233.027 57.2505 233.2 55.4281C231.987 55.5631 231.25 55.6306 230.99 55.6306C228.823 55.6306 227.263 55.1243 226.31 54.1119C225.357 53.032 224.88 51.6483 224.88 49.9609C224.88 48.2735 225.703 47.0249 227.35 46.2149C229.083 45.405 231.207 45 233.72 45C235.973 45 237.75 45.9449 239.05 47.8348C240.35 49.6572 241 51.7833 241 54.2132C241 57.1155 239.743 60.0178 237.23 62.9201C234.717 65.8224 230.167 70.0746 223.58 75.6767L225.27 83.3712C225.963 86.746 226.83 89.0746 227.87 90.357C228.91 91.5719 230.557 92.1794 232.81 92.1794C234.63 92.1794 236.233 91.9769 237.62 91.5719C237.273 95.0142 235.627 97.6128 232.68 99.3677C229.733 101.123 226.267 102 222.28 102Z" fill="black"/>
</svg>
