<svg width="60" height="60" viewBox="0 0 60 60" fill="none" xmlns="http://www.w3.org/2000/svg">
<path d="M57.2558 16.2586C56.6015 13.7951 54.6738 11.8549 52.2262 11.1965C47.7897 10 30 10 30 10C30 10 12.2104 10 7.77388 11.1965C5.32627 11.855 3.39856 13.7951 2.74429 16.2586C1.55554 20.724 1.55554 30.0404 1.55554 30.0404C1.55554 30.0404 1.55554 39.3569 2.74429 43.8222C3.39856 46.2857 5.32627 48.1451 7.77388 48.8035C12.2104 50 30 50 30 50C30 50 47.7896 50 52.2262 48.8035C54.6738 48.1451 56.6015 46.2857 57.2558 43.8222C58.4445 39.3569 58.4445 30.0404 58.4445 30.0404C58.4445 30.0404 58.4445 20.724 57.2558 16.2586ZM24.1818 38.4991V21.5818L39.0504 30.0406L24.1818 38.4991Z" fill="#3C2011"/>
</svg>
